<?xml version="1.0" encoding="UTF-8"?><svg id="Layer_1" xmlns="http://www.w3.org/2000/svg" xmlns:xlink="http://www.w3.org/1999/xlink" viewBox="0 0 708.66 708.66"><defs><style>.cls-1{fill:none;}.cls-2{letter-spacing:-.02em;}.cls-3{clip-path:url(#clippath);}.cls-4,.cls-5{fill:#6e6f72;}.cls-5{font-family:Lato-Medium, Lato;font-size:50px;}.cls-6{letter-spacing:0em;}</style><clipPath id="clippath"><circle class="cls-1" cx="354.33" cy="299.98" r="213.14"/></clipPath></defs><g><path class="cls-4" d="M354.24,517.38c-116.08,0-210.51-94.44-210.51-210.51S238.16,96.36,354.24,96.36s210.51,94.44,210.51,210.51-94.44,210.51-210.51,210.51Zm0-411.03c-110.56,0-200.51,89.95-200.51,200.51s89.95,200.51,200.51,200.51,200.51-89.95,200.51-200.51-89.95-200.51-200.51-200.51Z"/><g class="cls-3"><g><path class="cls-4" d="M315.63,379.37v77.41c0,3.58,.76,6.99,2.11,10.08h-9.67c-2.05,0-3.93,.67-5.46,1.8-2.29,1.68-3.77,4.38-3.77,7.44,0,1.78,.51,24.38,1.38,25.79,1.63,2.64,4.3,9.77,7.62,9.77l208.47,.18c5.1,0,9.24-30.64,9.24-35.74s-4.13-9.24-9.24-9.24h-9.66c1.35-3.09,2.11-6.49,2.11-10.08v-89.84h-178.7c-1.95,6.56-7.58,11.47-14.43,12.43h0Z"/><path class="cls-4" d="M330.98,358.96h182.37c7.3,0,13.23-5.92,13.23-13.23s-5.92-13.23-13.23-13.23h-181.88c.03,1.93,.06,3.88,.06,5.87,0,6.51-.19,13.42-.55,20.58h0Z"/><path class="cls-4" d="M228.64,271.19c0,7.81-.41,16.34-1.71,23.85v175.7c0,8.6,6.97,15.57,15.57,15.57s15.57-6.97,15.57-15.57v-113.7h5.84v128.37c0,8.6,6.97,15.57,15.57,15.57s15.57-6.97,15.57-15.57v-190.35c-1.31-7.51-1.71-16.05-1.71-23.86,0-7.12,.33-13.59,.64-18-3.35-1.34-6.25-1.7-8.14-1.73-.17-.01-.34-.03-.52-.03h-5.43l-18.07,44.97h-1.68l-18.06-44.97h-5.43c-.17,0-.33,.02-.49,.03-1.88,.03-4.79,.39-8.17,1.73,.3,4.41,.64,10.88,.64,18.01h0Z"/><path class="cls-4" d="M297.12,271.19c0,5.96,.25,12.37,.94,18.28,3.2,9.99,5.77,25.56,5.76,48.92,0,6.94-.23,14.57-.71,22.95-.32,5.56,3.92,10.32,9.48,10.65,.2,.01,.4,.02,.6,.02,5.3,0,9.74-4.13,10.05-9.49,.5-8.73,.74-16.75,.74-24.12-.05-38.02-6.12-59.06-14.4-71.71-3.67-5.57-7.89-9.36-11.92-11.7-.26,4.25-.53,9.98-.53,16.21h0Z"/><path class="cls-4" d="M208.8,372.01c.2,0,.4,0,.6-.02,5.56-.33,9.79-5.1,9.47-10.65-.49-8.38-.72-16.01-.71-22.95-.03-23.39,2.58-38.92,5.76-48.92,.69-5.91,.94-12.32,.94-18.27,0-6.24-.26-11.98-.53-16.22-6.33,3.67-12.94,10.85-17.67,22.91-5.18,13.07-8.65,31.97-8.67,60.51,0,7.38,.24,15.4,.75,24.13,.31,5.35,4.75,9.49,10.05,9.49h0Z"/><path class="cls-4" d="M265.6,243.88c13.46-2.2,23.73-13.88,23.73-27.96,0-15.65-12.69-28.34-28.34-28.34s-28.34,12.69-28.34,28.34c0,14.08,10.27,25.76,23.73,27.96,1.5,.24,3.04,.38,4.61,.38s3.11-.13,4.61-.38h0Z"/></g></g></g><text class="cls-5" transform="translate(282.56 608.68)"><tspan class="cls-6" x="0" y="0">D</tspan><tspan x="37.68" y="0">eale</tspan><tspan class="cls-2" x="127.55" y="0">r</tspan></text></svg>