<?xml version="1.0" encoding="UTF-8"?><svg id="Layer_1" xmlns="http://www.w3.org/2000/svg" viewBox="0 0 708.66 708.66"><defs><style>.cls-1{letter-spacing:0em;}.cls-2{letter-spacing:-.02em;}.cls-3{letter-spacing:0em;}.cls-4{letter-spacing:-.02em;}.cls-5,.cls-6{fill:#6e6f72;}.cls-7{letter-spacing:-.02em;}.cls-6{font-family:Lato-Medium, Lato;font-size:50px;}.cls-8{letter-spacing:0em;}.cls-9{letter-spacing:0em;}.cls-10{letter-spacing:0em;}</style></defs><g><path class="cls-5" d="M354.63,502.6c-116.08,0-210.51-94.44-210.51-210.51S238.55,81.58,354.63,81.58s210.51,94.44,210.51,210.51-94.44,210.51-210.51,210.51Zm0-411.03c-110.56,0-200.51,89.95-200.51,200.51s89.95,200.51,200.51,200.51,200.51-89.95,200.51-200.51-89.95-200.51-200.51-200.51Z"/><g><path class="cls-5" d="M388.24,333.93c-10.76,.04-18.26-6.59-18.39-16.71-.27-21.14-.18-42.29-.02-63.44,.04-5.37,2.4-10.17,5.35-14.61,.45-.67,.89-1.35,.97-2.38-4.26,3.32-8.53,6.63-12.79,9.95-4.06,3.17-8.18,6.26-12.15,9.54-4.96,4.1-10.41,5.11-16.56,3.43-5.56-1.52-11.18-2.84-17.24-4.37,0,1.35,0,2.38,0,3.42,0,57,.02,114,.02,171,0,10.6-7.53,18.68-17.51,18.79-9.8,.11-17.75-8.11-17.77-18.59-.05-28.23-.02-56.46-.02-84.69,0-1.17,0-2.34,0-3.73h-10.29c0,1.44,0,2.71,0,3.97,0,28.34,.04,56.68-.01,85.02-.02,11.9-10.06,19.94-21.65,17.47-6.4-1.36-12.09-7.51-13.11-14.34-.32-2.11-.46-4.27-.46-6.41-.02-53.78-.02-107.56-.02-161.34,0-1.29,.08-2.6-.17-3.84-.11-.56-1.02-1.41-1.45-1.34-.66,.1-1.54,.77-1.74,1.39-.32,.98-.17,2.12-.17,3.19,0,21.9,0,43.8,0,65.69,0,.95-.09,1.89-.14,2.82-11.47,.24-17.96-6.92-18.11-15.33-.39-21.99-.61-44.01,.12-65.99,.34-10.21,7.14-17.68,15.28-23.52,11.06-7.94,23.76-11.04,37.08-12.28,17.82-1.66,34.97,2.41,52.17,6.04,4.82,1.02,9.59,2.25,14.35,3.52,1.94,.52,3.37,.18,4.98-1.09,10.67-8.48,21.42-16.85,32.16-25.23,4.22-3.3,8.89-5.09,14.36-4.07,6.29,1.18,10.45,4.87,12.29,10.92,1.79,5.87,.58,11.22-3.61,15.81-.35,.39-.71,.78-1.03,1.13,5.95-1.79,11.77-4.06,17.8-5.25,18.97-3.75,37.77-3.23,56.02,3.84,10.26,3.97,19.13,10.01,24.24,20.05,2.03,3.98,3.49,8.72,3.57,13.14,.37,20.07,.23,40.14,.14,60.22-.05,11.14-7.47,18.49-18.52,18.16,0-1.22,0-2.46,0-3.7,0-21.79,.01-43.58-.04-65.37,0-1.53,.86-4.07-1.69-4.11-2.59-.04-1.77,2.53-1.77,4.04-.05,54.32-.06,108.63-.04,162.95,0,5.52-1.04,10.62-4.83,14.91-4.79,5.43-11.79,7.29-18.7,4.84-6.82-2.41-11.64-8.71-11.68-15.8-.1-17.17-.04-34.35-.05-51.52,0-12.77,0-25.53,0-38.56h-10.3c0,1.36,0,2.62,0,3.88,0,28.34,.02,56.68,0,85.02,0,8.54-5.59,15.77-13.37,17.5-11.49,2.55-21.34-5.43-21.91-17.76-.03-.75-.01-1.5-.01-2.25,0-54.21,0-108.42,0-162.63,0-.75,.23-1.61-.06-2.23-.42-.92-1.2-1.66-1.83-2.48-.55,.79-1.31,1.51-1.58,2.38-.28,.88-.08,1.91-.08,2.88,0,21.58,0,43.15,0,64.73,0,1.06,0,2.11,0,3.33Z"/><path class="cls-5" d="M313.05,171.57c.07,19.62-16.09,36.02-35.6,36.11-20.08,.09-36.44-16.02-36.48-35.92-.04-19.77,16.18-36.06,35.96-36.12,19.8-.06,36.04,16.11,36.12,35.93Z"/><path class="cls-5" d="M432.37,135.64c19.88,.07,36.05,16.5,35.9,36.5-.14,19.51-16.55,35.61-36.22,35.54-19.79-.07-35.98-16.4-35.86-36.18,.12-19.83,16.37-35.94,36.18-35.87Z"/></g></g><text class="cls-6" transform="translate(80.91 613.58)"><tspan class="cls-8" x="0" y="0">I</tspan><tspan x="13.83" y="0">npe</tspan><tspan class="cls-1" x="96.4" y="0">r</tspan><tspan x="114.57" y="0">son </tspan><tspan class="cls-4" x="205.35" y="0">(</tspan><tspan class="cls-10" x="217.77" y="0">C</tspan><tspan x="250.7" y="0">us</tspan><tspan class="cls-3" x="300.37" y="0">t</tspan><tspan x="318.32" y="0">ome</tspan><tspan class="cls-2" x="414.57" y="0">r</tspan><tspan class="cls-7" x="431.84" y="0"> </tspan><tspan class="cls-9" x="443.27" y="0">visit)</tspan></text></svg>