<?xml version="1.0" encoding="UTF-8"?><svg id="Layer_1" xmlns="http://www.w3.org/2000/svg" viewBox="0 0 708.66 708.66"><defs><style>.cls-1{letter-spacing:0em;}.cls-2,.cls-3{fill:#6e6f72;}.cls-4{letter-spacing:0em;}.cls-5{letter-spacing:-.02em;}.cls-3{font-family:Lato-Medium, Lato;font-size:50px;}.cls-6{letter-spacing:0em;}</style></defs><g><path class="cls-2" d="M354.33,523.4c-116.08,0-210.51-94.44-210.51-210.51S238.25,102.38,354.33,102.38s210.51,94.44,210.51,210.51-94.44,210.51-210.51,210.51Zm0-411.03c-110.56,0-200.51,89.95-200.51,200.51s89.95,200.51,200.51,200.51,200.51-89.95,200.51-200.51-89.95-200.51-200.51-200.51Z"/><path class="cls-2" d="M288.65,244.03v-3.32c0-2.48,2.03-4.5,4.53-4.5,.64,0,1.26-.2,1.78-.56,1.57-1.11,2.37-3.68,2.37-7.64,0-21.39,12.37-40.55,30.65-50.16l6.71,28.93c.33,1.42,1.6,2.39,3.01,2.39,.23,0,.47-.02,.7-.08,1.67-.39,2.7-2.05,2.31-3.72l-6.99-30.14c2.75-1.08,5.59-1.94,8.53-2.59v3.09c0,1.71,1.39,3.09,3.09,3.09s3.09-1.39,3.09-3.09v-9.46c0-2.48,2.03-4.49,4.53-4.49h2.86c2.5,0,4.53,2.01,4.53,4.49v9.47c0,1.71,1.39,3.09,3.09,3.09s3.09-1.39,3.09-3.09v-3.1c2.94,.64,5.78,1.51,8.53,2.59l-7,30.14c-.39,1.67,.65,3.33,2.31,3.72,.23,.06,.47,.08,.7,.08,1.4,0,2.68-.96,3.01-2.39l6.71-28.93c18.28,9.61,30.65,28.77,30.65,50.16,0,3.98,.8,6.55,2.39,7.65,.51,.36,1.13,.56,1.76,.56,2.5,0,4.53,2.02,4.53,4.5v3.32c0,2.48-2.03,4.49-4.53,4.49h-122.45c-2.5,0-4.53-2.02-4.53-4.5h0Zm8.71,10.68h114.08c-1.1,54.74-31.48,66.35-57.04,66.35s-55.94-11.62-57.05-66.35h0Zm-44.14,144.51c-3.01-1.46-5.76-2.99-8.23-4.6l1.08-16.96,7.15,21.56Zm7.6,3.28l-11.69-35.23,42.11-37.52,29.6,71.85c.48,1.16,1.61,1.92,2.86,1.92h61.39c1.26,0,2.38-.75,2.86-1.92l29.6-71.85,42.24,37.63-11.18,34.84c-23.8,9.67-58.02,15.23-94.29,15.23s-69.77-5.46-93.51-14.97h0Zm36.24-74.87h114.68l-28.72,69.72h-57.25l-28.72-69.72Zm165.76,50.59l1.04,16.28c-2.36,1.5-4.91,2.92-7.64,4.29l6.6-20.57Zm-244.87,62.58c0-10.03,4.77-16.77,9.22-16.77,4.08,0,7.93,5.51,8.94,12.92,.17,1.23,.28,2.51,.28,3.85,0,2.49-.31,4.88-.93,7.09-.03,.11-.06,.22-.07,.33-1.55,5.6-4.83,9.36-8.21,9.36-4.91,0-9.22-7.85-9.22-16.78h0Zm252.49,39.71c-.56,.5-1.11,1-1.85,1.56-19.92,15.94-64.77,36.44-114.27,36.44s-94.35-20.5-114.38-36.52c-.54-.4-1.03-.84-1.64-1.44-5.33-4.66-8.04-9.54-8.04-14.5v-2.8c4.91-1.45,9.05-6.26,11.01-13.16,.02-.06,.05-.11,.07-.16,.12-.29,.19-.59,.2-.9,.68-2.6,1.03-5.36,1.03-8.23,0-1.49-.13-2.91-.31-4.39-.02-.14-.01-.28-.03-.43-1.27-9.14-6-15.88-11.97-17.64v-28.04c2.51,2.96,5.78,5.81,9.75,8.5,4.75,3.28,10.52,6.31,17.18,8.99,.1,.04,.2,.07,.31,.1,24.49,10.03,59.75,15.78,96.81,15.78s73.4-5.9,97.97-16.21c6.18-2.59,11.73-5.52,16.52-8.71,3.9-2.67,7.1-5.49,9.57-8.42v27.95c-7.1,2.09-12.3,11.22-12.3,22.5,0,3.46,.52,6.68,1.4,9.6,.05,.15,.09,.3,.16,.44,2.04,6.36,5.93,11.04,10.73,12.46v2.77c0,4.88-2.67,9.74-7.94,14.46h0Zm11.06-22.97c-4.36,0-9.22-6.88-9.22-16.76s4.81-16.68,9.15-16.76c.02,0,.03,.01,.05,.01,.02,0,.04-.01,.07-.01,4.34,.06,9.16,6.92,9.16,16.76,0,9.88-4.85,16.76-9.21,16.76h0Z"/></g><text class="cls-3" transform="translate(254.03 608.68)"><tspan class="cls-6" x="0" y="0">A</tspan><tspan class="cls-5" x="33.97" y="0">r</tspan><tspan class="cls-4" x="51.35" y="0">chi</tspan><tspan class="cls-1" x="115.42" y="0">t</tspan><tspan x="133.37" y="0">ect</tspan></text></svg>