<?xml version="1.0" encoding="UTF-8"?><svg id="Layer_1" xmlns="http://www.w3.org/2000/svg" viewBox="0 0 708.66 708.66"><defs><style>.cls-1,.cls-2{fill:#6e6f72;}.cls-2{font-family:Lato-Medium, Lato;font-size:50px;}.cls-3{letter-spacing:-.03em;}</style></defs><g><path class="cls-1" d="M354.33,516.9c-116.08,0-210.51-94.44-210.51-210.51S238.25,95.88,354.33,95.88s210.51,94.44,210.51,210.51-94.44,210.51-210.51,210.51Zm0-411.03c-110.56,0-200.51,89.95-200.51,200.51s89.95,200.51,200.51,200.51,200.51-89.95,200.51-200.51-89.95-200.51-200.51-200.51Z"/><g><path class="cls-1" d="M348.12,226.56c0-20.2-15.43-36.86-35.12-38.83v41.09l-35.57,20.45c7.09,9.85,18.63,16.31,31.67,16.31,21.52,0,39.02-17.51,39.02-39.03h0Z"/><path class="cls-1" d="M305.2,224.3v-36.57c-19.7,1.96-35.13,18.63-35.13,38.83,0,5.69,1.25,11.08,3.45,15.96l31.68-18.21Z"/><path class="cls-1" d="M423.32,193.16h15.28v72.51h-15.28v-72.51Z"/><path class="cls-1" d="M379.93,220.01h15.28v45.55h-15.28v-45.55Z"/><path class="cls-1" d="M313.23,311.23h82.21v17.12h-82.21v-17.12Z"/><path class="cls-1" d="M465.37,453.18V159.64c0-1.93-1.56-3.51-3.47-3.51H246.81c-1.94,0-3.51,1.57-3.51,3.51V453.18c0,1.91,1.58,3.47,3.51,3.47h215.09c1.91,0,3.47-1.56,3.47-3.47Zm-93.24-240.97h30.88v61.16h-30.88v-61.16Zm31.11,91.22v32.73h-97.81v-32.73h97.81Zm-140.87-73.83c-1.8-28.22,21.56-51.58,49.79-49.78,23.33,1.49,42.18,20.33,43.68,43.67,1.81,28.24-21.57,51.61-49.81,49.79-23.33-1.5-42.17-20.35-43.65-43.68Zm14.56,203.49v-7.8h155.17v7.8h-155.17Zm155.13-29.54h-155.44v-7.8h155.44v7.8Zm.51-29.54h-156.48v-7.8h156.48v7.8Zm13.82-100.53h-30.88v-88.12h30.88v88.12Z"/></g></g><text class="cls-2" transform="translate(267.82 599.28)"><tspan class="cls-3" x="0" y="0">R</tspan><tspan x="29.88" y="0">eports</tspan></text></svg>