<?xml version="1.0" encoding="UTF-8"?><svg id="Layer_1" xmlns="http://www.w3.org/2000/svg" viewBox="0 0 708.66 708.66"><defs><style>.cls-1{letter-spacing:0em;}.cls-2,.cls-3{fill:#6e6f72;}.cls-3{font-family:Lato-Medium, Lato;font-size:50px;}</style></defs><g><path class="cls-2" d="M354.33,499.86c-116.08,0-210.51-94.44-210.51-210.51S238.25,78.84,354.33,78.84s210.51,94.44,210.51,210.51-94.44,210.51-210.51,210.51Zm0-411.03c-110.56,0-200.51,89.95-200.51,200.51s89.95,200.51,200.51,200.51,200.51-89.95,200.51-200.51-89.95-200.51-200.51-200.51Z"/><g><path class="cls-2" d="M293.33,430.69h121.99c6.47,0,12.68-2.57,17.25-7.15,4.58-4.57,7.15-10.78,7.15-17.25h-170.78c0,6.47,2.57,12.68,7.15,17.25,4.57,4.58,10.78,7.15,17.25,7.15h0Zm54.9-18.3h12.2c3.37,0,6.1,2.73,6.1,6.1s-2.73,6.1-6.1,6.1h-12.2c-3.37,0-6.1-2.73-6.1-6.1s2.73-6.1,6.1-6.1Z"/><path class="cls-2" d="M415.33,150.11h-121.99c-6.47,0-12.68,2.57-17.25,7.15-4.58,4.57-7.15,10.78-7.15,17.25h170.78c0-6.47-2.57-12.68-7.15-17.25-4.57-4.58-10.78-7.15-17.25-7.15h0Z"/><path class="cls-2" d="M268.94,394.09h170.78V186.71h-170.78v207.38Zm103.69-170.78c44.04,0,58.92,54.9,42.7,54.9-3.37,0-6.1-2.73-6.1-6.1,0-9.71-3.86-19.02-10.72-25.88-6.86-6.86-16.17-10.72-25.88-10.72-3.37,0-6.1-2.73-6.1-6.1s2.73-6.1,6.1-6.1Zm0,24.4c23.48,0,30.86,30.5,18.3,30.5-3.37,0-6.1-2.73-6.1-6.1s-1.28-6.34-3.57-8.63c-2.29-2.29-5.39-3.57-8.63-3.57s-6.1-2.73-6.1-6.1,2.73-6.1,6.1-6.1h0Zm-69.29-1.16c5.12-5.19,8.72-9.7,17.2-9.7,10.13,0,13.6,6.1,30.19,22.63h0c3.43,3.43,5.35,8.08,5.35,12.93s-1.92,9.5-5.35,12.93l-4.27,4.33,8.6,8.6,4.33-4.27c3.43-3.43,8.08-5.35,12.93-5.35s9.5,1.92,12.93,5.35c17.02,16.96,22.63,20.25,22.63,30.19-.46,6.91-4.02,13.24-9.7,17.2-9.15,9.14-21.56,14.28-34.49,14.28s-25.34-5.14-34.49-14.28l-25.86-25.86c-9.14-9.15-14.28-21.56-14.28-34.49s5.14-25.34,14.28-34.49h0Z"/><path class="cls-2" d="M337.8,333.1c9.26,9.2,22.71,12.78,35.32,9.39l-9.39-9.39c-2.46-2.46-2.46-6.45,0-8.91,2.46-2.46,6.45-2.46,8.91,0l12.2,12.57c3.26-2.48,6.28-5.26,9.03-8.3,2.36-2.38,2.36-6.22,0-8.6l-17.2-17.26c-1.15-1.15-2.7-1.8-4.33-1.8s-3.19,.65-4.33,1.8l-8.6,8.6h0c-1.15,1.16-2.7,1.81-4.33,1.81s-3.18-.65-4.33-1.8l-17.2-17.2c-1.15-1.15-1.8-2.7-1.8-4.33s.65-3.19,1.8-4.33l8.6-8.6c1.15-1.15,1.8-2.7,1.8-4.33s-.65-3.18-1.8-4.33l-17.26-17.26h0c-2.38-2.36-6.22-2.36-8.6,0-3.03,2.77-5.81,5.81-8.3,9.09l12.57,12.57h0c1.29,1.1,2.06,2.7,2.13,4.39,.07,1.7-.58,3.35-1.78,4.55-1.2,1.2-2.85,1.85-4.55,1.78-1.7-.07-3.29-.84-4.4-2.13l-9.39-9.39h0c-3.39,12.6,.19,26.06,9.39,35.32l25.86,26.11Z"/></g></g><text class="cls-3" transform="translate(241.1 616.32)"><tspan class="cls-1" x="0" y="0">P</tspan><tspan x="30.1" y="0">hone call</tspan></text></svg>