<?xml version="1.0" encoding="UTF-8"?><svg id="Layer_1" xmlns="http://www.w3.org/2000/svg" viewBox="0 0 708.66 708.66"><defs><style>.cls-1,.cls-2{fill:#6e6f72;}.cls-2{font-family:Lato-Medium, Lato;font-size:50px;}.cls-3{letter-spacing:-.03em;}</style></defs><g><path class="cls-1" d="M354.33,507.51c-116.08,0-210.51-94.44-210.51-210.51S238.25,86.48,354.33,86.48s210.51,94.44,210.51,210.51-94.44,210.51-210.51,210.51Zm0-411.03c-110.56,0-200.51,89.95-200.51,200.51s89.95,200.51,200.51,200.51,200.51-89.95,200.51-200.51-89.95-200.51-200.51-200.51Z"/><path class="cls-1" d="M464.4,240.59h-46.6v146.93h-15.53V143.59h-46.6v243.93h-15.53V173.57h-46.6v213.95h-15.53v-59.98h-46.6v59.98h-15.09v19.78H479.76v-19.78h-15.36V240.59Z"/></g><text class="cls-2" transform="translate(302.33 608.68)"><tspan class="cls-3" x="0" y="0">L</tspan><tspan x="24.08" y="0">ead</tspan></text></svg>