<?xml version="1.0" encoding="UTF-8"?><svg id="Layer_1" xmlns="http://www.w3.org/2000/svg" viewBox="0 0 708.66 708.66"><defs><style>.cls-1{letter-spacing:-.02em;}.cls-2,.cls-3{fill:#6e6f72;}.cls-3{font-family:Lato-Medium, Lato;font-size:50px;}.cls-4{letter-spacing:-.01em;}</style></defs><g><path class="cls-2" d="M354.33,515.83c-116.08,0-210.51-94.44-210.51-210.51S238.25,94.8,354.33,94.8s210.51,94.44,210.51,210.51-94.44,210.51-210.51,210.51Zm0-411.03c-110.56,0-200.51,89.95-200.51,200.51s89.95,200.51,200.51,200.51,200.51-89.95,200.51-200.51-89.95-200.51-200.51-200.51Z"/><g><path class="cls-2" d="M357.23,441.66h.26c5.82-14.24,11.48-32.71,16.24-51.18-2.42-15.73-6.29-29.39-8.45-36.31,1.86-5.27,6.09-10.82,6.9-15.86,.85-5.27-.94-8.87-3.64-12.21-1.12-1.39-2.94-1.94-4.23-.96l-4.63,3.21c-1.29,.98-3.37,.98-4.66,0l-4.63-3.21c-1.28-.98-3.1-.43-4.22,.96-2.71,3.35-4.49,6.94-3.65,12.21,.81,5.04,5.05,10.59,6.9,15.87-2.16,6.92-6.03,20.56-8.45,36.29,4.78,18.47,10.43,36.95,16.25,51.2h0Z"/><path class="cls-2" d="M403.19,279.87c1.12-3.86,1.91-7.94,2.41-11.02,3.57-1.62,6.31-4.38,7.79-7.86,2.13-5,3.26-15.81,3.3-16.27,.87-8.52,.37-13.95-1.82-17.71-.88-1.51-2.95-2.53-4.23-2.5-1.15,.03-2.31,.07-2.31,.07-3.24,0-6.59,1.47-7.62,3.22-.03,.05-.09,.09-.12,.14-.22,4.56-.55,8.07-.55,8.07-.08,.61,.82,1.04,1.26,.12,.7-1.52,2.55-7.3,5.14-7.47,1.74-.09,2.84,1.86,3.14,2.83,.5,1.63,.88,4.87,.19,11.64-.61,5.87-1.86,12.43-2.79,14.62-.58,1.37-1.67,2.27-3.22,2.68-4.41,1.19-5.4,3.83-5.6,5.29-.51,3.7-1.43,9.14-2.85,14.02-2.35,8.06-17.17,27.04-35.26,27.2-.9,.02-4.9,.03-6,0-17.47-.55-32.07-18.26-34.67-27.19-1.26-4.34-2.12-9.13-2.66-12.74-.07-.44-.13-.88-.19-1.28-.19-1.46-1.19-4.11-5.59-5.29-1.56-.41-2.64-1.31-3.22-2.68-.94-2.19-2.18-8.75-2.79-14.62-.69-6.77-.31-10.02,.18-11.64,.3-.97,1.41-2.92,3.14-2.83,2.6,.18,4.44,5.95,5.14,7.47,.43,.92,1.33,.49,1.25-.12,0,0-.25-3.49-.47-7.99-.06-.07-.16-.14-.2-.22-1.03-1.74-4.38-3.22-7.62-3.22h-2.34c-1.29,0-3.38,.99-4.25,2.51-2.15,3.75-2.63,9.17-1.76,17.62,.05,.47,1.18,11.28,3.3,16.27,1.48,3.48,4.22,6.23,7.79,7.86,.51,3.09,1.3,7.18,2.42,11.02,3.31,11.37,20.31,32.04,42.41,32.75,.55,.02,1.83,.03,3.1,.03h2.89c22.19-.22,39.94-21.44,43.24-32.77h0Z"/><path class="cls-2" d="M296.48,218.32h3.26c3.67,0,7.45,1.78,8.62,3.91,.42,.77,1.24,1.46,2.29,2.05,1.5,.82,3.71,2.44,5.34,3.27,6.09,3.14,22.31,5.39,41.39,5.39s35.3-2.26,41.38-5.39c1.63-.84,3.84-2.46,5.34-3.27,1.05-.58,1.87-1.27,2.29-2.05,1.16-2.12,4.94-3.91,8.62-3.91h3.26c3.67,0,6.64-2.97,6.64-6.64v-11.6c0-3.67-1.73-6.62-3.87-6.62s-3.83-2.98-4.24-6.62c-1.91-17.3-11.24-32.35-24.73-41.96-1.49-1.07-3.05-.4-3.41,1.39l-7.45,36.86c-1.44,7.19-3.38,12.88-4.33,12.73-.94-.17-.92-6.17,.03-13.42l5.24-39.77c.24-1.82-.91-3.92-2.61-4.61-6.85-2.75-14.33-4.29-22.17-4.29s-15.29,1.54-22.14,4.28c-1.71,.68-2.85,2.79-2.62,4.61l5.24,39.78c.96,7.25,.97,13.25,.03,13.42-.94,.16-2.88-5.53-4.33-12.73l-7.44-36.87c-.37-1.79-1.92-2.47-3.41-1.41-13.5,9.62-22.84,24.67-24.75,41.98-.4,3.64-2.1,6.62-4.24,6.62s-3.88,2.95-3.88,6.62v11.6c0,3.67,2.97,6.64,6.65,6.64h0Z"/><path class="cls-2" d="M228.08,448.46c-1.44,25.83,9.32,28.43,32.25,40.31l30.38,12.21c1.73,.96,3.63,1.57,5.6,1.78l73.35,8.01,64.33-16.33,44.9-22.76c5.1,0,9.01-16.94,7.98-26.9l-4.33-71.11c-.69-6.97-5.2-14.37-10.05-16.54,0,0-41.83-18.91-54.71-24.74-2.82-1.28-5.39-2.99-7.64-5.11-4.39-4.14-10.6-10.41-10.6-10.41-1.09-1.26-2.4-2.02-3.43-1.9-1.09,.04-1.91,.98-1.93,3.33v.49c1.58,15.52-18.3,97.51-36.76,125.5h-.12c-18.46-27.99-38.34-109.97-36.76-125.5v-.49c-.02-2.35-.85-3.29-1.93-3.33-1.03-.13-2.34,.64-3.43,1.9,0,0-6.93,6.64-11.25,10.77-2.29,2.19-4.92,3.98-7.8,5.29-13.62,6.2-53.9,24.2-53.9,24.2-4.86,2.16-9.36,9.56-10.05,16.54,0,0-3.68,67.25-4.1,74.8Zm170.88-63.09c0-1.02,.72-1.84,1.62-1.84h36.8c.89,0,1.62,.82,1.62,1.84v18.4c0,1.02-.73,1.84-1.62,1.84h-36.8c-.89,0-1.62-.82-1.62-1.84v-18.4h0Z"/></g></g><text class="cls-3" transform="translate(258.64 608.68)"><tspan class="cls-4" x="0" y="0">E</tspan><tspan x="28.2" y="0">nginee</tspan><tspan class="cls-1" x="175.37" y="0">r</tspan></text></svg>