<?xml version="1.0" encoding="UTF-8"?><svg id="Layer_1" xmlns="http://www.w3.org/2000/svg" viewBox="0 0 708.66 708.66"><defs><style>.cls-1{letter-spacing:-.02em;}.cls-2{letter-spacing:0em;}.cls-3,.cls-4{fill:#6e6f72;}.cls-5{letter-spacing:0em;}.cls-4{font-family:Lato-Medium, Lato;font-size:50px;}.cls-6{letter-spacing:0em;}.cls-7{letter-spacing:0em;}</style></defs><text class="cls-4" transform="translate(229.06 608.68)"><tspan class="cls-7" x="0" y="0">C</tspan><tspan class="cls-5" x="32.82" y="0">omp</tspan><tspan class="cls-6" x="130.72" y="0">e</tspan><tspan x="157" y="0">ti</tspan><tspan class="cls-2" x="188.15" y="0">t</tspan><tspan x="206.1" y="0">o</tspan><tspan class="cls-1" x="234.55" y="0">r</tspan></text><g><path class="cls-3" d="M354.33,519.17c-116.08,0-210.51-94.44-210.51-210.51S238.25,98.15,354.33,98.15s210.51,94.44,210.51,210.51-94.44,210.51-210.51,210.51Zm0-411.03c-110.56,0-200.51,89.95-200.51,200.51s89.95,200.51,200.51,200.51,200.51-89.95,200.51-200.51-89.95-200.51-200.51-200.51Z"/><path class="cls-3" d="M359.59,357.3l41.25,89.16-28.45-143.96-23.32,34.71-41.25-89.16,28.45,143.96,23.32-34.71Z"/><path class="cls-3" d="M279.88,287.88c0-11.08-4.4-21.72-12.23-29.55-7.84-7.84-18.47-12.24-29.55-12.24s-21.71,4.4-29.55,12.24c-7.84,7.84-12.24,18.47-12.24,29.55s4.4,21.72,12.24,29.55c7.84,7.84,18.47,12.24,29.55,12.24s21.72-4.4,29.55-12.24c7.84-7.84,12.24-18.47,12.23-29.55Z"/><path class="cls-3" d="M512.36,287.88c0-11.08-4.4-21.72-12.23-29.55-7.84-7.84-18.47-12.24-29.55-12.24s-21.71,4.4-29.55,12.24c-7.84,7.84-12.24,18.47-12.24,29.55s4.4,21.72,12.24,29.55c7.84,7.84,18.47,12.24,29.55,12.24s21.72-4.4,29.55-12.24c7.84-7.84,12.24-18.47,12.23-29.55Z"/><g><path class="cls-3" d="M222.39,338.08c-1.12,.16-2.24,.34-3.35,.54-12,2.1-22.63,9.01-29.44,19.11-8.46,12.56-14.57,26.56-18.04,41.3h49.18l11.07-40.82-9.41-20.13Z"/><path class="cls-3" d="M286.59,357.73c-6.81-10.11-17.44-17.01-29.44-19.12-1.11-.2-2.23-.37-3.35-.53l-9.41,20.13,11.07,40.82h49.18c-3.47-14.75-9.58-28.74-18.04-41.3h0Z"/></g><g><path class="cls-3" d="M454.86,338.14c-1.12,.16-2.24,.34-3.35,.54-12,2.1-22.63,9.01-29.44,19.11-8.46,12.56-14.57,26.56-18.04,41.3h49.18l11.07-40.82-9.41-20.13Z"/><path class="cls-3" d="M519.06,357.79c-6.81-10.11-17.43-17.01-29.44-19.12-1.11-.2-2.23-.37-3.35-.53l-9.41,20.13,11.07,40.82h49.18c-3.47-14.75-9.58-28.74-18.04-41.3h0Z"/></g><polyline class="cls-3" points="220.74 399.03 238.09 422.7 255.45 399.04 304.63 399.04 339.83 399.09 359.83 368.62 407.83 469.2 396.33 399.03 404.03 399.09 453.21 399.09 470.56 418.91 487.93 399.09 537.1 399.09 518.83 432.7 506.98 446.46 492.33 460.2 476.86 475.2 426.33 501.7 373.83 513.7 326.83 513.7 289.83 502.7 257.83 491.2 213.83 460.7 198.83 441.16 185.33 427.2 176.83 411.2 171.56 399.03"/></g></svg>