<?xml version="1.0" encoding="UTF-8"?><svg id="Layer_1" xmlns="http://www.w3.org/2000/svg" viewBox="0 0 708.66 708.66"><defs><style>.cls-1{letter-spacing:0em;}.cls-2,.cls-3{fill:#6e6f72;}.cls-3{font-family:Lato-Medium, Lato;font-size:50px;}.cls-4{letter-spacing:-.03em;}</style></defs><g><path class="cls-2" d="M354.33,514.32c-116.08,0-210.51-94.44-210.51-210.51S238.25,93.3,354.33,93.3s210.51,94.44,210.51,210.51-94.44,210.51-210.51,210.51Zm0-411.03c-110.56,0-200.51,89.95-200.51,200.51s89.95,200.51,200.51,200.51,200.51-89.95,200.51-200.51-89.95-200.51-200.51-200.51Z"/><g><path class="cls-2" d="M388.64,431.23c0-2.98-.06-5.86,.01-8.74,.1-3.86-.46-7.58-1.81-11.2-.24-.63-.09-1.46,.03-2.17,.56-3.31,1.49-6.6,1.69-9.93,.29-4.79,.13-9.6,.04-14.41-.24-13.82-11.92-25.35-25.76-25.44-5.72-.04-11.44-.04-17.17,0-13.86,.09-25.55,11.58-25.81,25.4-.1,5.23-.21,10.46,.06,15.68,.14,2.84,1.06,5.64,1.62,8.46,.13,.67,.51,1.47,.27,1.99-2.24,5.02-2.03,10.32-1.98,15.62,.01,1.54,0,3.08,0,4.74-.74,.06-1.28,.14-1.82,.14-15.26-.13-30.52-.07-45.77-.47-10.24-.27-20.38-1.56-30.05-5.33-13.38-5.23-20.78-15.24-22.71-29.18-6.48-46.79,24.83-90.58,71.16-99.63,4.54-.89,9.24-1.3,13.86-1.32,32.43-.11,64.85,.06,97.28-.11,14.02-.08,27.19,3.08,39.43,9.62,27.21,14.55,43.28,37.18,47.87,67.78,1.34,8.93,1.28,17.89-.65,26.74-3.2,14.69-12.53,23.53-26.71,27.7-7.97,2.35-16.16,3.5-24.41,3.7-15.74,.39-31.5,.36-47.25,.5-.4,0-.81-.07-1.44-.13Z"/><path class="cls-2" d="M431.63,204.72c-.54,43.27-35.25,77.69-77.83,77.17-43.13-.52-77.59-35.47-76.95-78.05,.64-42.97,35.59-77.28,78.15-76.72,42.59,.56,77.15,35.57,76.63,77.6Z"/><path class="cls-2" d="M339.94,447.49c0-8.41,0-16.81,0-25.22,0-5.03,2.37-7.4,7.37-7.4,4.8,0,9.61-.01,14.41,0,4.19,.01,6.8,2.5,6.81,6.67,.03,17.38,.03,34.76,0,52.13,0,4.21-2.52,6.73-6.72,6.78-5.01,.06-10.03,.05-15.05,0-4.33-.04-6.8-2.55-6.82-6.9-.03-8.69,0-17.38,0-26.07Z"/><path class="cls-2" d="M354.09,405.61c-2.61,0-5.22,.04-7.83,0-3.73-.07-6.23-2.5-6.3-6.24-.08-4.51-.09-9.03,0-13.55,.07-3.78,2.53-6.22,6.28-6.26,5.36-.07,10.73-.07,16.09,0,3.64,.05,6.1,2.46,6.19,6.13,.11,4.58,.1,9.17,0,13.76-.08,3.72-2.62,6.1-6.38,6.16-2.68,.04-5.36,0-8.04,0Z"/></g></g><text class="cls-3" transform="translate(252.18 601.87)"><tspan class="cls-4" x="0" y="0">R</tspan><tspan x="29.88" y="0">epor</tspan><tspan class="cls-1" x="131.25" y="0">t</tspan><tspan x="149.2" y="0">ee</tspan></text></svg>