<?xml version="1.0" encoding="UTF-8"?><svg id="Layer_1" xmlns="http://www.w3.org/2000/svg" viewBox="0 0 708.66 708.66"><defs><style>.cls-1,.cls-2,.cls-3{fill:#6e6f72;}.cls-2{font-family:Lato-Medium, Lato;font-size:50px;}.cls-3{stroke:#6e6f72;stroke-miterlimit:10;stroke-width:3.9px;}.cls-4{letter-spacing:-.11em;}</style></defs><g><path class="cls-1" d="M354.33,507.51c-116.08,0-210.51-94.44-210.51-210.51S238.25,86.48,354.33,86.48s210.51,94.44,210.51,210.51-94.44,210.51-210.51,210.51Zm0-411.03c-110.56,0-200.51,89.95-200.51,200.51s89.95,200.51,200.51,200.51,200.51-89.95,200.51-200.51-89.95-200.51-200.51-200.51Z"/><path class="cls-3" d="M422.08,148.72h-43.44c-27.87,0-50.53,22.67-50.53,50.53,0,4,.52,7.87,1.4,11.6h-40.29c-7.6,0-13.79,6.19-13.79,13.79v188.82c0,7.6,6.19,13.79,13.79,13.79h126.51c7.6,0,13.79-6.19,13.79-13.79V253.8l7.09-4.08c26.92-13.79,36.01-26.52,36.01-50.47,0-27.87-22.67-50.53-50.53-50.53h0Zm-5.05,46.39c2.31,0,4.18,1.87,4.18,4.18s-1.87,4.18-4.18,4.18-4.18-1.87-4.18-4.18,1.87-4.18,4.18-4.18Zm-16.67,0c2.31,0,4.18,1.87,4.18,4.18s-1.87,4.18-4.18,4.18-4.18-1.87-4.18-4.18c0-2.31,1.87-4.18,4.18-4.18Zm-16.67,0c2.31,0,4.18,1.87,4.18,4.18s-1.87,4.18-4.18,4.18-4.18-1.87-4.18-4.18c0-2.31,1.87-4.18,4.18-4.18Zm-5.71,56.43h18.01l-.89,22.6,13.92-8.36v127.08c0,.2-.17,.37-.37,.37h-112.05c-.2,0-.37-.17-.37-.37V237.16c0-.2,.17-.37,.37-.37h46.29c8.94,9.09,21.36,14.76,35.1,14.76h0Zm45.16,159.5c0,4.97-4.04,9.02-9.02,9.02h-123.28c-4.97,0-9.02-4.04-9.02-9.01V227.04c0-4.97,4.04-9.02,9.01-9.02h40.52c1.77,5.24,4.4,10.07,7.71,14.35h-42.47c-2.64,0-4.79,2.15-4.79,4.79v155.71c0,2.64,2.15,4.79,4.79,4.79h112.06c2.64,0,4.79-2.15,4.79-4.79v-130.75l9.7-4.12v153.04Z"/></g><text class="cls-2" transform="translate(306.09 608.68)"><tspan class="cls-4" x="0" y="0">T</tspan><tspan x="24" y="0">ask</tspan></text></svg>