<?xml version="1.0" encoding="UTF-8"?><svg id="Layer_1" xmlns="http://www.w3.org/2000/svg" viewBox="0 0 708.66 708.66"><defs><style>.cls-1{letter-spacing:0em;}.cls-2{letter-spacing:-.02em;}.cls-3,.cls-4{fill:#6e6f72;}.cls-5{letter-spacing:0em;}.cls-6{letter-spacing:0em;}.cls-4{font-family:Lato-Medium, Lato;font-size:50px;}.cls-7{letter-spacing:-.02em;}.cls-8{letter-spacing:0em;}.cls-9{letter-spacing:0em;}.cls-10{letter-spacing:0em;}</style></defs><g><path class="cls-3" d="M355.63,518.92c-116.08,0-210.51-94.44-210.51-210.51S239.56,97.9,355.63,97.9s210.51,94.44,210.51,210.51-94.44,210.51-210.51,210.51Zm0-411.03c-110.56,0-200.51,89.95-200.51,200.51s89.95,200.51,200.51,200.51,200.51-89.95,200.51-200.51-89.95-200.51-200.51-200.51Z"/><g><path class="cls-3" d="M420.01,237.41v-4.35c0-31.03-25.16-66.39-56.19-66.39h-16.37c-31.03,0-56.19,35.36-56.19,66.39v4.35c42.8-14.12,85.96-14.12,128.75,0h0Z"/><path class="cls-3" d="M461.24,378.75l-61.24-31.92-2.71-20.92c10.8-10.28,18.3-23.77,21.73-39.16,9.01-3.59,15.05-12.69,15.05-23.02s-5.66-18.49-13.82-22.41c-42.93-14.91-86.29-14.91-129.22,0-8.16,3.92-13.82,12.45-13.82,22.41s6.04,19.44,15,23.07c3.07,13.73,9.72,26.37,18.82,36.14v23.49c0,.19,.09,.33,.09,.52l-60.06,31.99c-20.1,10.33-32.6,30.76-32.6,53.31v23.71c0,9.2,7.52,16.72,16.72,16.72h19.51v-36.66h9.44v36.66h183v-36.66h9.44v36.66h19.51c9.2,0,16.72-7.52,16.72-16.72v-24.42c0-22.08-12.08-42.32-31.56-52.79h0Zm-160.31-96.43c-.33-1.79-1.7-3.26-3.44-3.68-6.42-1.65-10.85-7.78-10.85-14.91,0-5.9,3.07-11.04,7.6-13.59l5.33,11.51c3.21,6.89,10.61,10.61,18.07,9.06,25.19-5.38,49.87-5.38,73.36,.05,17.5,3.36,20.85-16.83,25.47-20.85,4.86,2.45,8.16,7.69,8.16,13.82,0,7.12-4.48,13.21-10.85,14.86-1.75,.42-3.11,1.89-3.44,3.68-6,31.62-29.81,51.38-54.73,51.38-27.38,0-49.35-22.83-54.67-51.33h0Zm19.53,62.65v-13.59c10.47,7.6,22.6,11.7,35.15,11.7s24.72-4.11,35.15-11.7v13.59l-35.15,52.27-35.15-52.27Zm113.61,95.11c0,2.59-2.12,4.72-4.72,4.72h-57.56c-2.59,0-4.72-2.12-4.72-4.72v-16.14c0-2.64,2.12-4.72,4.72-4.72h57.56c2.6,0,4.72,2.08,4.72,4.72v16.14Z"/><path class="cls-3" d="M376.54,428.64h48.08v6.7h-48.08v-6.7Z"/></g><polygon class="cls-3" points="483.97 466.08 459.97 484.74 410.63 508.92 359.3 515.74 318.97 511.08 276.97 498.08 249.97 485.08 232.97 475.08 226.63 466.08 247.63 428.64 278.3 428.64 292.97 467.08 438.3 466.74 445.97 431.99 461.97 430.08 483.97 466.08"/></g><text class="cls-4" transform="translate(144.86 608.68)"><tspan class="cls-7" x="0" y="0">P</tspan><tspan x="29.45" y="0">ai</tspan><tspan class="cls-10" x="66.6" y="0">n</tspan><tspan x="94.23" y="0">ting </tspan><tspan class="cls-5" x="192.07" y="0">c</tspan><tspan x="215.55" y="0">o</tspan><tspan class="cls-8" x="244" y="0">n</tspan><tspan class="cls-6" x="271.62" y="0">t</tspan><tspan class="cls-9" x="289.72" y="0">r</tspan><tspan class="cls-6" x="307.65" y="0">ac</tspan><tspan class="cls-1" x="356.55" y="0">t</tspan><tspan x="374.5" y="0">o</tspan><tspan class="cls-2" x="402.95" y="0">r</tspan></text></svg>