<?xml version="1.0" encoding="UTF-8"?><svg id="Layer_1" xmlns="http://www.w3.org/2000/svg" viewBox="0 0 708.66 708.66"><defs><style>.cls-1{letter-spacing:0em;}.cls-2{letter-spacing:-.02em;}.cls-3,.cls-4{fill:#6e6f72;}.cls-5{letter-spacing:0em;}.cls-6{letter-spacing:-.02em;}.cls-4{font-family:Lato-Medium, Lato;font-size:50px;}.cls-7{letter-spacing:-.02em;}.cls-8{letter-spacing:0em;}</style></defs><path class="cls-3" d="M354.33,507.51c-116.08,0-210.51-94.44-210.51-210.51S238.25,86.48,354.33,86.48s210.51,94.44,210.51,210.51-94.44,210.51-210.51,210.51Zm0-411.03c-110.56,0-200.51,89.95-200.51,200.51s89.95,200.51,200.51,200.51,200.51-89.95,200.51-200.51-89.95-200.51-200.51-200.51Zm103.14,201.97v118.05c0,5.72-2.28,11.21-6.33,15.26-4.05,4.05-9.54,6.32-15.26,6.33H254.53c-5.72,0-11.21-2.28-15.26-6.33-4.05-4.05-6.32-9.54-6.33-15.26V183.35c0-5.72,2.28-11.21,6.33-15.26,4.05-4.05,9.54-6.32,15.26-6.33h181.35c5.72,0,11.21,2.28,15.26,6.33,4.05,4.05,6.32,9.54,6.33,15.26v31.69c0,2.38-1.93,4.32-4.32,4.32s-4.32-1.93-4.32-4.32v-31.69c0-3.44-1.37-6.73-3.8-9.16-2.43-2.43-5.72-3.79-9.16-3.8H254.53c-3.44,0-6.73,1.37-9.16,3.8-2.43,2.43-3.79,5.72-3.8,9.16v233.17c0,3.43,1.37,6.73,3.8,9.16,2.43,2.43,5.72,3.79,9.16,3.8h181.35c3.44,0,6.73-1.37,9.16-3.8,2.43-2.43,3.79-5.72,3.8-9.16v-118.05c0-2.38,1.93-4.32,4.32-4.32s4.32,1.93,4.32,4.32h0Zm-21.59-61.83c1.15,0,2.24-.45,3.05-1.26,.81-.81,1.26-1.91,1.26-3.05v-40.33c0-1.15-.45-2.24-1.26-3.05s-1.91-1.26-3.05-1.26H254.53c-2.38,0-4.32,1.93-4.32,4.32v198.62c0,1.15,.45,2.24,1.26,3.05,.81,.81,1.91,1.26,3.05,1.26h181.35c1.15,0,2.24-.45,3.05-1.26s1.26-1.91,1.26-3.05v-74.91c0-2.38-1.93-4.32-4.32-4.32s-4.32,1.93-4.32,4.32v70.6h-172.72V196.3h172.72v36.01c0,1.15,.45,2.24,1.26,3.05,.81,.81,1.91,1.26,3.05,1.26h0Zm-82.04-53.29c2.38,0,4.32-1.93,4.32-4.32s-1.93-4.32-4.32-4.32h-17.27c-2.38,0-4.32,1.93-4.32,4.32s1.93,4.32,4.32,4.32h17.27Zm-8.64,215.89c3.44,0,6.73,1.36,9.16,3.79,2.43,2.43,3.79,5.73,3.79,9.16s-1.36,6.73-3.79,9.16c-2.43,2.43-5.73,3.79-9.16,3.79s-6.73-1.36-9.16-3.79c-2.43-2.43-3.79-5.73-3.79-9.16,0-3.44,1.37-6.73,3.8-9.16,2.43-2.43,5.72-3.79,9.16-3.8h0Zm0,8.64c-1.75,0-3.32,1.05-3.99,2.67-.67,1.61-.3,3.47,.93,4.71,1.24,1.24,3.09,1.6,4.71,.93,1.61-.67,2.67-2.24,2.67-3.99,0-2.38-1.93-4.32-4.32-4.32h0Zm164.08-190.73c.01,4.39-1.73,8.6-4.84,11.69l-121.64,121.64c-.6,.6-1.37,1.01-2.21,1.18l-21.59,4.32c-.28,.06-.56,.08-.85,.08-1.29,0-2.52-.58-3.34-1.58-.82-1-1.15-2.32-.89-3.59l4.32-21.59c.17-.83,.58-1.6,1.18-2.21l121.64-121.64c3.1-3.1,7.31-4.84,11.69-4.84s8.59,1.74,11.69,4.84c3.1,3.1,4.84,7.31,4.84,11.69h0Zm-8.64,0c0-2.09-.83-4.1-2.31-5.58s-3.49-2.31-5.58-2.31-4.1,.83-5.58,2.31l-120.71,120.72-2.79,13.96,13.95-2.79,120.72-120.72h0c1.49-1.48,2.32-3.49,2.31-5.58h0Z"/><text class="cls-4" transform="translate(207.94 608.68)"><tspan class="cls-7" x="0" y="0">P</tspan><tspan x="29.45" y="0">ai</tspan><tspan class="cls-8" x="66.6" y="0">n</tspan><tspan class="cls-1" x="94.23" y="0">t</tspan><tspan x="112.18" y="0">e</tspan><tspan class="cls-2" x="138.65" y="0">r</tspan><tspan class="cls-5" x="155.92" y="0" xml:space="preserve"> en</tspan><tspan class="cls-6" x="223" y="0">r</tspan><tspan x="240.37" y="0">oll</tspan></text></svg>