<?xml version="1.0" encoding="UTF-8"?><svg id="Layer_1" xmlns="http://www.w3.org/2000/svg" viewBox="0 0 708.66 708.66"><defs><style>.cls-1{letter-spacing:0em;}.cls-2,.cls-3{fill:#6e6f72;}.cls-4{letter-spacing:0em;}.cls-5{letter-spacing:-.02em;}.cls-3{font-family:Lato-Medium, Lato;font-size:50px;}.cls-6{letter-spacing:0em;}</style></defs><g><path class="cls-2" d="M354.33,514.32c-116.08,0-210.51-94.44-210.51-210.51S238.25,93.3,354.33,93.3s210.51,94.44,210.51,210.51-94.44,210.51-210.51,210.51Zm0-411.03c-110.56,0-200.51,89.95-200.51,200.51s89.95,200.51,200.51,200.51,200.51-89.95,200.51-200.51-89.95-200.51-200.51-200.51Z"/><path class="cls-2" d="M470.02,255.48v-77.52c.05-3.02-1.11-5.92-3.23-8.07-2.12-2.15-5-3.36-8.02-3.36s-5.9,1.21-8.02,3.36c-2.11,2.15-3.28,5.06-3.23,8.07v4.04h0c-12.01,16.81-27.86,30.52-46.23,39.97-18.37,9.45-38.74,14.37-59.4,14.36-80.86,0-79.04,.04-79.57,.04-6.66,0-13.17,1.98-18.71,5.68-5.54,3.7-9.85,8.97-12.39,15.12,.38-.1,.81-.17,1.2-.28h0c-5.28,1.13-10.01,4.03-13.4,8.23-3.39,4.2-5.24,9.43-5.24,14.83v29.84c0,5.18,1.72,10.22,4.88,14.32,3.16,4.11,7.58,7.06,12.58,8.41,2.54,6.16,6.85,11.43,12.38,15.14,5.54,3.71,12.05,5.69,18.71,5.7h3.54l20.1,77.08c.85,3.06,2.67,5.75,5.19,7.67,2.52,1.93,5.59,2.98,8.76,3,2.14,0,.11,.28,32.96-6.29,3.57-.71,6.71-2.82,8.74-5.85,2.02-3.03,2.76-6.74,2.05-10.31l-1.09-5.38c-1.44-7.17-7.2-12.8-13.14-12.8-2.07,0-5.23-2.99-6.18-6.78l-3.37-13.6,8.01-2h0c2.03-.5,3.27-2.54,2.78-4.57l-5.06-20.17h16.27c20.66-.02,41.03,4.9,59.4,14.35,18.37,9.45,34.22,23.16,46.23,39.97v4.04c-.05,3.01,1.11,5.92,3.23,8.07,2.11,2.15,5,3.36,8.02,3.36s5.9-1.21,8.02-3.36c2.11-2.15,3.28-5.06,3.23-8.07v-77.51c9.97-4.75,17.76-13.1,21.81-23.37,4.05-10.27,4.05-21.7,0-31.97-4.05-10.27-11.84-18.62-21.81-23.37h0Zm-192.78,68.03h-29.84c-2.09,0-3.79-1.7-3.79-3.8s1.7-3.8,3.79-3.8h29.84c2.09,0,3.79,1.7,3.79,3.8s-1.7,3.8-3.79,3.8Zm0-14.94h-29.84c-2.09,0-3.79-1.7-3.79-3.8s1.7-3.79,3.79-3.79h29.84c2.09,0,3.79,1.7,3.79,3.79s-1.7,3.8-3.79,3.8Zm0-14.9h-29.84c-1.02,.03-2.02-.36-2.75-1.07-.74-.72-1.15-1.7-1.15-2.72s.41-2.01,1.15-2.72c.73-.71,1.73-1.1,2.75-1.07h29.84c1.02-.03,2.02,.36,2.75,1.07,.74,.71,1.15,1.7,1.15,2.72s-.41,2.01-1.15,2.72c-.74,.71-1.73,1.1-2.75,1.07Zm0-14.94h-29.84c-2.09,0-3.79-1.7-3.79-3.8s1.7-3.79,3.79-3.79h29.84c2.09,0,3.79,1.7,3.79,3.79s-1.7,3.8-3.79,3.8Zm40.81,94.01l-4.85-19.4h4.64l4.53,18.29h0c-1.41,.49-2.85,.86-4.32,1.1h0Zm22.7-26.99h-7.6v-101.8h7.59l.02,101.8Zm121.68,65.95c0,2.02-1.64,3.66-3.66,3.66s-3.66-1.64-3.66-3.66V177.96c0-2.02,1.64-3.66,3.66-3.66s3.66,1.64,3.66,3.66v233.75Zm7.59-86.13v-61.46c10.73,6.52,17.29,18.17,17.29,30.73s-6.55,24.21-17.29,30.73h0Z"/></g><text class="cls-3" transform="translate(237.92 601.86)"><tspan class="cls-4" x="0" y="0">P</tspan><tspan class="cls-5" x="29.8" y="0">r</tspan><tspan x="47.17" y="0">om</tspan><tspan class="cls-1" x="116.95" y="0">o</tspan><tspan class="cls-6" x="144.92" y="0">tion</tspan></text></svg>