<?xml version="1.0" encoding="UTF-8"?><svg id="Layer_1" xmlns="http://www.w3.org/2000/svg" viewBox="0 0 708.66 708.66"><defs><style>.cls-1{letter-spacing:-.02em;}.cls-2,.cls-3{fill:#6e6f72;}.cls-4{letter-spacing:0em;}.cls-5{letter-spacing:0em;}.cls-3{font-family:Lato-Medium, Lato;font-size:50px;}.cls-6{letter-spacing:0em;}.cls-7{letter-spacing:0em;}.cls-8{letter-spacing:0em;}.cls-9{letter-spacing:-.02em;}</style></defs><g><path class="cls-2" d="M353.55,514.32c-116.08,0-210.51-94.44-210.51-210.51S237.47,93.3,353.55,93.3s210.51,94.44,210.51,210.51-94.44,210.51-210.51,210.51Zm0-411.03c-110.56,0-200.51,89.95-200.51,200.51s89.95,200.51,200.51,200.51,200.51-89.95,200.51-200.51-89.95-200.51-200.51-200.51Z"/><g><path class="cls-2" d="M450.51,361.99c-2.55-8.5-5.01-16.69-7.56-25.17,2.37-.28,4.47-.42,6.51-.82,.83-.16,1.99-.75,2.24-1.42,4.01-10.96,7.89-21.97,11.8-32.97l-.63-.28c-.53,1.03-1.12,2.04-1.59,3.1-3.89,8.75-7.8,17.49-11.6,26.29-.63,1.46-1.47,1.86-2.97,1.96-17.54,1.13-35.07,2.28-52.6,3.56-7.43,.54-13.41-4.35-14.2-12-.68-6.54,4.59-13.08,11.36-13.82,10.93-1.19,21.88-2.27,32.84-3.26,2.13-.19,3.52-.76,3.85-3.03,.11-.78,.45-1.53,.71-2.28,1.19-3.45,1.57-6.74,.79-10.55-3.99-19.31,9.27-31.16,26.34-33.1,5.63-.64,11.18-.45,16.5,1.73,9.2,3.77,12.69,11.14,13.95,20.59,4.12,30.95,8.56,61.86,13.06,92.75,1.93,13.27-7.71,24.85-21.13,25.54-15.24,.79-30.45,2.13-45.68,3.18-1.78,.12-2.05,1.28-2.47,2.6-4.71,14.78-9.39,29.57-14.19,44.33-2.99,9.2-13.2,12.95-21.37,7.97-5.74-3.49-8.1-10.3-5.9-17.22,3.86-12.17,7.77-24.33,11.65-36.49,1.84-5.74,3.71-11.47,5.5-17.23,1.63-5.24,5.12-8.31,10.27-10.24,11.45-4.29,22.74-9,34.51-13.71Z"/><path class="cls-2" d="M243.68,301.89c.63,1.98,1.21,3.98,1.9,5.93,2.88,8.2,5.89,16.35,8.63,24.6,.85,2.56,2.08,3.9,4.83,3.87,1.58-.02,3.15,.29,5.13,.5-2.52,8.4-4.97,16.59-7.52,25.09,3.2,1.32,6.27,2.64,9.37,3.87,8.9,3.53,17.81,7.02,26.71,10.54,4.32,1.71,7.14,4.85,8.55,9.25,5.78,18.07,11.59,36.14,17.32,54.23,2.59,8.16-1.41,16.15-9.18,18.61-7.82,2.48-15.6-1.67-18.24-9.85-4.65-14.43-9.29-28.87-13.81-43.34-.71-2.28-1.69-3.18-4.2-3.34-15.33-.94-30.64-2.01-45.95-3.21-12.25-.96-21.2-12.7-19.45-25.01,4.45-31.18,8.89-62.35,13.21-93.55,2.11-15.23,11.93-23.39,27.31-22.07,3.69,.32,7.45,.83,10.96,1.94,14.71,4.67,21.96,17.3,18.25,32.27-1.29,5.21,1.22,9.28,2.45,13.77,.15,.56,1.74,.94,2.7,1.04,10.76,1.14,21.54,2.14,32.3,3.3,7.76,.84,12.76,7.18,11.87,14.85-.81,7.05-7.22,11.59-14.78,10.97-13.8-1.14-27.62-2.02-41.43-2.98-3.45-.24-6.91-.48-10.37-.52-1.67-.02-2.46-.61-3.13-2.15-3.8-8.79-7.73-17.52-11.63-26.27-.39-.87-.85-1.71-1.28-2.56l-.52,.2Z"/><path class="cls-2" d="M377.9,332.12h-48.98c2.91-6.69,2.67-12.93-1.94-18.63-4.59-5.69-11.02-6.2-17.88-5.92-.62-5.44-1.23-10.7-1.82-15.97-.64-5.73-1.19-11.48-1.93-17.19-.95-7.4,4.18-14.71,11.57-15.67,4.64-.6,9.38-.46,14.07-.75,1.7-.11,2.02,1.04,2.52,2.18,4.36,9.9,8.73,19.8,13.11,29.7,.35,.78,.76,1.54,1.69,2.26,.63-6.98,1.26-13.96,1.89-21h8.3c.56,6.95,1.12,13.87,1.68,20.78l.57,.14c.42-.8,.88-1.59,1.27-2.41,4.63-9.78,9.29-19.55,13.83-29.37,.78-1.69,1.69-2.45,3.59-2.3,3.89,.31,7.82,.22,11.68,.69,6.65,.82,12.23,6.7,11.85,13.3-.67,11.77-1.97,23.5-3.04,35.61-2.35,0-4.46-.03-6.57,0-13.09,.22-20.47,11.09-15.85,23.31,.12,.32,.21,.65,.39,1.22Z"/><path class="cls-2" d="M275.69,356.65c0-5.68,0-11.08,0-16.48,0-.6,.1-1.2,.19-2.16,3.56,.24,6.98,.44,10.39,.71,8.05,.62,16.1,1.26,24.15,1.93,4.14,.35,8.14,.1,11.88-2,.79-.44,1.86-.53,2.8-.53,18.82-.03,37.64-.03,56.47,0,.95,0,2.04,.02,2.82,.46,4.17,2.36,8.59,2.37,13.18,1.96,9.98-.9,19.99-1.62,29.98-2.37,1.58-.12,3.18-.02,5-.02v18.51h-156.87Z"/><path class="cls-2" d="M280.02,223.89c-.05,8.36-2.4,15.92-7.97,22.28-9.26,10.59-23.69,11.01-33.57,1.04-12.24-12.35-11.85-35.61,.8-47.5,9.99-9.4,24.46-8.33,33.34,2.45,4.83,5.87,7.4,13.41,7.4,21.72Z"/><path class="cls-2" d="M427.06,224.28c.15-9.41,2.74-17.43,9.11-23.91,9.23-9.37,22.73-9.43,32.11-.24,12.77,12.52,12.35,36.16-.85,48.24-8.54,7.82-20.81,8.1-29.56,.53-7.62-6.59-10.6-15.26-10.81-24.63Z"/><path class="cls-2" d="M378.6,218.53c0,7.41-2.02,14.17-6.55,20.1-9.21,12.06-25.46,12.22-34.95,.36-8.99-11.24-9.14-29-.36-40.42,9.69-12.6,26.71-12.26,35.92,.72,4.09,5.76,5.95,12.21,5.94,19.25Z"/><path class="cls-2" d="M354.36,266.93c-2.57,.23-3.88-.96-4.84-3.06-.8-1.76-1.96-3.35-2.85-5.07-.97-1.86-.41-3.02,1.6-3.08,3.88-.12,7.78-.09,11.66-.02,2.05,.03,2.73,1.21,1.79,3.01-1.22,2.35-2.45,4.73-4.03,6.83-.62,.83-2.19,.96-3.33,1.4Z"/></g></g><text class="cls-3" transform="translate(94.11 601.86)"><tspan class="cls-8" x="0" y="0">O</tspan><tspan x="39.92" y="0">ffi</tspan><tspan class="cls-4" x="84.75" y="0">c</tspan><tspan x="108.22" y="0">e </tspan><tspan class="cls-1" x="147.32" y="0">(Of</tspan><tspan class="cls-8" x="159.75" y="0">f</tspan><tspan class="cls-6" x="199.67" y="0">i</tspan><tspan class="cls-5" x="244.5" y="0">c</tspan><tspan x="267.97" y="0">e mee</tspan><tspan class="cls-7" x="374.87" y="0">t</tspan><tspan x="401.15" y="0">ing</tspan><tspan class="cls-9" x="486.37" y="0">s</tspan><tspan x="507" y="0">)</tspan></text></svg>