<?xml version="1.0" encoding="UTF-8"?><svg id="Layer_1" xmlns="http://www.w3.org/2000/svg" viewBox="0 0 708.66 708.66"><defs><style>.cls-1{letter-spacing:0em;}.cls-2,.cls-3{fill:#6e6f72;}.cls-4{letter-spacing:-.02em;}.cls-3{font-family:Lato-Medium, Lato;font-size:50px;}</style></defs><g><path class="cls-2" d="M354.33,524.22c-116.08,0-210.51-94.44-210.51-210.51S238.25,103.19,354.33,103.19s210.51,94.44,210.51,210.51-94.44,210.51-210.51,210.51Zm0-411.03c-110.56,0-200.51,89.95-200.51,200.51s89.95,200.51,200.51,200.51,200.51-89.95,200.51-200.51-89.95-200.51-200.51-200.51Z"/><g><path class="cls-2" d="M395.2,363.74c-10.92-10.9-25.71-17.02-41.13-17.02s-30.22,6.12-41.13,17.01h0c-36.66,36.15-9.79,99.87,41.13,99.29,50.9,.59,77.8-63.12,41.13-99.28Zm-27.42,63.99h0l-13.71-13.71-13.71,13.71c-2.54,2.46-6.58,2.43-9.07-.07-2.5-2.5-2.53-6.54-.07-9.07l13.71-13.71-13.71-13.71c-2.46-2.54-2.43-6.57,.07-9.07,2.5-2.5,6.54-2.53,9.07-.07l13.71,13.71,13.71-13.71c2.54-2.46,6.58-2.43,9.07,.07,2.5,2.5,2.53,6.54,.07,9.07l-13.71,13.71,13.71,13.71c6,5.84-3.29,15.17-9.14,9.14Z"/><path class="cls-2" d="M452.21,424.27h62.27c-1.33,3.77-3.79,7.04-7.05,9.36-3.26,2.31-7.16,3.56-11.16,3.57h-25.86c-4,0-7.9-1.26-11.16-3.57-3.26-2.32-5.72-5.59-7.05-9.36h0Z"/><path class="cls-2" d="M528.58,411.34h-103.76c1.21-13.37-1.37-26.82-7.46-38.78h111.23c6.93,0,13.33,3.7,16.79,9.7,3.46,6,3.46,13.39,0,19.39-3.47,6-9.87,9.7-16.79,9.7h0Z"/><path class="cls-2" d="M290.77,372.56c-6.09,11.97-8.67,25.41-7.46,38.78h-103.76c-25.16,.35-25.15-39.14,0-38.78h111.22Z"/><path class="cls-2" d="M193.66,424.27h62.27c-1.33,3.77-3.79,7.04-7.05,9.36-3.26,2.31-7.16,3.56-11.16,3.57h-25.86c-4,0-7.9-1.26-11.16-3.57-3.26-2.32-5.72-5.59-7.05-9.36h0Z"/><g><path class="cls-2" d="M466.07,265.94c-1.63,1.64-2.54,3.87-2.54,6.18v10.21c0,3.65-1.95,7.02-5.1,8.84-3.16,1.82-7.05,1.82-10.21,0-3.16-1.82-5.1-5.19-5.1-8.84,0-2.42-1.96-4.38-4.38-4.38s-4.38,1.96-4.38,4.38v14.58c0,3.65-1.95,7.02-5.1,8.84-3.16,1.82-7.05,1.82-10.21,0-3.16-1.82-5.1-5.19-5.1-8.84v-24.79c0-2.32-.92-4.55-2.56-6.19s-3.87-2.56-6.19-2.56v78.75c0,4.64,1.84,9.09,5.12,12.38,3.28,3.28,7.73,5.12,12.38,5.12h64.17c4.64,0,9.09-1.84,12.38-5.12,3.28-3.28,5.12-7.73,5.12-12.38v-78.75h-32.08c-2.33,0-4.57,.92-6.21,2.57h0Z"/><path class="cls-2" d="M399.37,248.79h110.83v8.75h-110.83v-8.75Z"/><path class="cls-2" d="M424.16,301.29c2.42,0,4.38-1.96,4.38-4.38v-14.58c0-3.65,1.95-7.02,5.1-8.84,3.16-1.82,7.05-1.82,10.21,0,3.16,1.82,5.1,5.19,5.1,8.84,0,2.42,1.96,4.38,4.38,4.38s4.38-1.96,4.38-4.38v-10.21c0-3.15,1.02-6.23,2.92-8.75h-43.75c1.89,2.52,2.92,5.6,2.92,8.75v24.79c0,2.42,1.96,4.38,4.38,4.38h0Z"/><path class="cls-2" d="M460.62,190.46h-11.67c-17.02,0-33.34,6.76-45.37,18.79-12.03,12.03-18.79,28.35-18.79,45.37v2.92h8.75v-5.83h-2.92c.75-14.96,7.22-29.06,18.08-39.37,10.86-10.31,25.27-16.06,40.25-16.04h11.67c14.98-.02,29.39,5.73,40.25,16.04,10.86,10.32,17.33,24.42,18.08,39.37h-2.92v5.83h8.75v-2.92c0-17.02-6.76-33.34-18.79-45.37-12.03-12.03-28.35-18.79-45.37-18.79h0Z"/></g><g><path class="cls-2" d="M365.91,243.62c-1.71,1.73-2.67,4.06-2.66,6.49v10.72c0,3.83-2.04,7.37-5.36,9.28-3.32,1.91-7.4,1.91-10.72,0-3.32-1.91-5.36-5.45-5.36-9.28,0-2.54-2.06-4.59-4.59-4.59s-4.59,2.06-4.59,4.59v15.31c0,3.83-2.04,7.37-5.36,9.28-3.32,1.91-7.4,1.91-10.72,0-3.32-1.91-5.36-5.45-5.36-9.28v-26.02c0-2.44-.97-4.77-2.69-6.49s-4.06-2.69-6.49-2.69v82.66c0,4.87,1.94,9.54,5.38,12.99,3.45,3.44,8.12,5.38,12.99,5.38h67.35c4.87,0,9.54-1.94,12.99-5.38,3.44-3.45,5.38-8.12,5.38-12.99v-82.66h-33.68c-2.45,0-4.79,.96-6.52,2.69h0Z"/><path class="cls-2" d="M295.9,225.62h116.34v9.18h-116.34v-9.18Z"/><path class="cls-2" d="M321.92,280.72c2.54,0,4.59-2.06,4.59-4.59v-15.31c0-3.83,2.04-7.37,5.36-9.28,3.32-1.91,7.4-1.91,10.72,0,3.32,1.91,5.36,5.45,5.36,9.28,0,2.54,2.06,4.59,4.59,4.59s4.59-2.06,4.59-4.59v-10.72c0-3.31,1.07-6.53,3.06-9.18h-43.88c1.99,2.65,1.02,5.87,1.02,9.18v26.02c0,2.54,2.06,4.59,4.59,4.59h0Z"/><path class="cls-2" d="M360.19,164.39h-12.25c-17.86,0-35,7.1-47.63,19.73-12.63,12.63-19.73,29.76-19.73,47.63v3.06h9.18v-6.12h-3.06c.79-15.7,7.58-30.5,18.98-41.33,11.4-10.83,26.53-16.86,42.25-16.84h12.25c15.72-.02,30.85,6.01,42.25,16.84,11.4,10.83,18.2,25.63,18.98,41.33h-3.06v6.12h9.18v-3.06c0-17.86-7.1-35-19.73-47.63-12.63-12.63-29.76-19.73-47.63-19.73h0Z"/></g><g><path class="cls-2" d="M264.63,265.94c-1.63,1.64-2.54,3.87-2.54,6.18v10.21c0,3.65-1.95,7.02-5.1,8.84-3.16,1.82-7.05,1.82-10.21,0-3.16-1.82-5.1-5.19-5.1-8.84,0-2.42-1.96-4.38-4.38-4.38s-4.38,1.96-4.38,4.38v14.58c0,3.65-1.95,7.02-5.1,8.84-3.16,1.82-7.05,1.82-10.21,0-3.16-1.82-5.1-5.19-5.1-8.84v-24.79c0-2.32-.92-4.55-2.56-6.19s-3.87-2.56-6.19-2.56v78.75c0,4.64,1.84,9.09,5.12,12.38,3.28,3.28,7.73,5.12,12.38,5.12h64.17c4.64,0,9.09-1.84,12.38-5.12,3.28-3.28,5.12-7.73,5.12-12.38v-78.75h-32.08c-2.33,0-4.57,.92-6.21,2.57h0Z"/><path class="cls-2" d="M197.93,248.79h110.83v8.75h-110.83v-8.75Z"/><path class="cls-2" d="M222.72,301.29c2.42,0,4.38-1.96,4.38-4.38v-14.58c0-3.65,1.95-7.02,5.1-8.84,3.16-1.82,7.05-1.82,10.21,0,3.16,1.82,5.1,5.19,5.1,8.84,0,2.42,1.96,4.38,4.38,4.38s4.38-1.96,4.38-4.38v-10.21c0-3.15,1.02-6.23,2.92-8.75h-43.75c1.89,2.52,2.92,5.6,2.92,8.75v24.79c0,2.42,1.96,4.38,4.38,4.38h0Z"/><path class="cls-2" d="M259.18,190.46h-11.67c-17.02,0-33.34,6.76-45.37,18.79-12.03,12.03-18.79,28.35-18.79,45.37v2.92h8.75v-5.83h-2.92c.75-14.96,7.22-29.06,18.08-39.37,10.86-10.31,25.27-16.06,40.25-16.04h11.67c14.98-.02,29.39,5.73,40.25,16.04,10.86,10.32,17.33,24.42,18.08,39.37l5.24-4.08v5.83l.59,4.08v-2.92c0-17.02-6.76-33.34-18.79-45.37-12.03-12.03-28.35-18.79-45.37-18.79h0Z"/></g></g></g><text class="cls-3" transform="translate(250.35 608.68)"><tspan class="cls-4" x="0" y="0">S</tspan><tspan class="cls-1" x="26.08" y="0">t</tspan><tspan x="44.03" y="0">ock out</tspan></text></svg>