<?xml version="1.0" encoding="UTF-8"?><svg id="Layer_1" xmlns="http://www.w3.org/2000/svg" viewBox="0 0 708.66 708.66"><defs><style>.cls-1,.cls-2{fill:#6e6f72;}.cls-3{letter-spacing:0em;}.cls-2{font-family:Lato-Medium, Lato;font-size:50px;}.cls-4{letter-spacing:-.01em;}.cls-5{letter-spacing:0em;}.cls-6{letter-spacing:-.01em;}</style></defs><g><path class="cls-1" d="M354.33,500.2c-116.08,0-210.51-94.44-210.51-210.51S238.25,79.17,354.33,79.17s210.51,94.44,210.51,210.51-94.44,210.51-210.51,210.51Zm0-411.03c-110.56,0-200.51,89.95-200.51,200.51s89.95,200.51,200.51,200.51,200.51-89.95,200.51-200.51-89.95-200.51-200.51-200.51Z"/><g><path class="cls-1" d="M466.22,200.19l-109.43-.56-6.98-20.66c-2.51-7.54-9.77-12.56-17.59-12.56h-85.98c-10.33,0-18.7,8.37-18.7,18.7v158.56c0,10.33,8.37,18.7,18.7,18.7h33.5c4.47,38.8,37.41,68.95,77.32,68.95s72.86-30.15,77.32-68.95h32.1c10.33,0,18.7-8.37,18.7-18.7v-124.78c0-10.33-8.65-18.7-18.98-18.7h0Zm-109.15,213.55c-33.22,0-60.02-27.08-60.02-60.02s26.8-60.3,60.02-60.3,60.02,27.08,60.02,60.02-27.08,60.3-60.02,60.3Zm110.26-70.07c0,.56-.56,.84-.84,.84h-32.1c-4.47-38.8-37.41-68.95-77.32-68.95s-72.86,30.15-77.32,68.95h-33.5c-.56,0-.84-.56-.84-.84V185.12c0-.56,.56-.84,.84-.84l86.82,.56,7.26,20.66c2.51,7.54,9.77,12.56,17.59,12.56h108.59c.56,0,.84,.56,.84,.84v124.78Z"/><path class="cls-1" d="M375.77,354.56l-10.05,10.05v-43.55c0-5.02-3.91-8.93-8.93-8.93s-8.93,3.91-8.93,8.93v43.55l-10.05-10.05c-3.35-3.35-9.21-3.35-12.56,0-3.35,3.35-3.35,9.21,0,12.56l25.12,25.12c1.67,1.67,3.91,2.51,6.42,2.51,2.23,0,4.75-.84,6.42-2.51l25.12-25.12c3.35-3.35,3.35-9.21,0-12.56-3.35-3.35-8.93-3.35-12.56,0h0Z"/></g></g><text class="cls-2" transform="translate(251.25 615.99)"><tspan class="cls-5" x="0" y="0">S</tspan><tspan class="cls-6" x="26.85" y="0">a</tspan><tspan class="cls-4" x="51.28" y="0">v</tspan><tspan x="76.5" y="0">e i</tspan><tspan class="cls-3" x="127.77" y="0">c</tspan><tspan x="151.25" y="0">on</tspan></text></svg>