<?xml version="1.0" encoding="UTF-8"?><svg id="Layer_1" xmlns="http://www.w3.org/2000/svg" viewBox="0 0 708.66 708.66"><defs><style>.cls-1,.cls-2{fill:#6e6f72;}.cls-2{font-family:Lato-Medium, Lato;font-size:50px;}</style></defs><g><path class="cls-1" d="M354.33,523.72c-116.08,0-210.51-94.32-210.51-210.26S238.25,103.19,354.33,103.19s210.51,94.32,210.51,210.26-94.44,210.26-210.51,210.26Zm0-410.54c-110.56,0-200.51,89.84-200.51,200.28s89.95,200.28,200.51,200.28,200.51-89.84,200.51-200.28-89.95-200.28-200.51-200.28Z"/><g><path class="cls-1" d="M431.54,397.24l-7.69,15.43c-3.25,6.47-9.54,10.88-16.73,11.76-12.82,1.69-25.85,1.01-38.43-2-53.02-12.77-82.05-63.73-85.01-69.16-4.26-6.23-51.19-77.82-7.13-142.17,4.06-6,10.85-9.57,18.1-9.52l17.26,.2h0c5.37,.09,10.51,2.18,14.42,5.85,3.91,3.68,6.3,8.68,6.7,14.03l2.63,37.06h0c.27,3.84-.5,7.68-2.23,11.12-1.73,3.44-4.36,6.35-7.61,8.42l-10.98,7c-1.47,.92-2.59,2.3-3.2,3.93-.61,1.62-.66,3.4-.15,5.06,2.62,8.07,5.74,15.96,9.35,23.64,3.04,6.57,6.83,12.76,11.29,18.46,5.2,6.7,10.81,13.08,16.8,19.09,1.24,1.21,2.85,1.98,4.58,2.18,1.72,.2,3.47-.17,4.96-1.05l11.25-6.57h0c3.32-1.95,7.12-2.96,10.97-2.93,3.86,.03,7.63,1.1,10.93,3.09l31.83,19.23h0c4.58,2.8,7.95,7.2,9.44,12.35,1.5,5.15,1.01,10.67-1.35,15.48h0Z"/><path class="cls-1" d="M382.76,232.09c17.58,6.61,32.44,18.89,42.24,34.89,9.79,16.01,13.96,34.82,11.83,53.46-.38,3.37,1.8,6.49,5.1,7.29,.27,.07,.55,.12,.83,.14,1.77,.2,3.56-.31,4.95-1.42,1.4-1.11,2.29-2.73,2.49-4.5,2.47-21.61-2.36-43.43-13.72-61.98-11.36-18.56-28.6-32.8-48.98-40.46-3.48-1.31-7.36,.44-8.67,3.92-1.31,3.47,.45,7.35,3.93,8.66h0Z"/><path class="cls-1" d="M370.79,258.22c12.13,4.56,22.38,13.03,29.14,24.08,6.76,11.04,9.63,24.02,8.17,36.88-.38,3.37,1.8,6.49,5.1,7.29,.27,.07,.55,.12,.83,.15,1.77,.2,3.55-.31,4.95-1.42,1.4-1.11,2.29-2.73,2.49-4.5,1.81-15.83-1.73-31.82-10.05-45.41-8.32-13.6-20.95-24.03-35.88-29.64-1.67-.63-3.52-.57-5.15,.16-1.63,.73-2.89,2.08-3.53,3.75-.63,1.67-.57,3.52,.17,5.15,.74,1.62,2.09,2.89,3.76,3.52h0Z"/><path class="cls-1" d="M357.31,289.8c5.36,2.02,9.9,5.76,12.89,10.64,2.99,4.88,4.26,10.62,3.61,16.31-.38,3.37,1.8,6.49,5.1,7.29,.27,.07,.55,.12,.83,.15,1.77,.2,3.56-.31,4.95-1.42,1.4-1.11,2.29-2.73,2.49-4.5,.99-8.66-.94-17.4-5.5-24.84-4.55-7.44-11.46-13.14-19.63-16.21-1.67-.63-3.53-.57-5.15,.16-1.63,.73-2.9,2.09-3.53,3.75-.63,1.67-.57,3.52,.17,5.15,.74,1.62,2.09,2.89,3.77,3.52h0Z"/></g></g><text class="cls-2" transform="translate(313.87 608.68)"><tspan x="0" y="0">Call</tspan></text></svg>