<?xml version="1.0" encoding="UTF-8"?><svg id="Layer_1" xmlns="http://www.w3.org/2000/svg" viewBox="0 0 708.66 708.66"><defs><style>.cls-1{letter-spacing:-.02em;}.cls-2,.cls-3{fill:props.fill;}.cls-4{letter-spacing:0em;}.cls-3{font-family:Lato-Medium, Lato;font-size:50px;}.cls-5{letter-spacing:0em;}</style></defs><g><polygon class="cls-2" points="539.03 399.85 515.11 409.12 484.33 409.12 441.9 411.12 445.36 435.62 439.83 463.12 414.72 467.62 385.33 467.62 271.98 465.12 266.42 416.15 242.83 409.62 175.12 408.3 207.7 458.46 247.33 487.12 304.85 511.17 357.07 515.62 398.2 511.17 432.83 501.12 463.33 484.62 480.33 474.62 506.18 448.94 533.83 412.12 539.03 399.85"/><path class="cls-2" d="M354.33,521.17c-116.08,0-210.51-94.44-210.51-210.51S238.25,100.15,354.33,100.15s210.51,94.44,210.51,210.51-94.44,210.51-210.51,210.51Zm0-411.03c-110.56,0-200.51,89.95-200.51,200.51s89.95,200.51,200.51,200.51,200.51-89.95,200.51-200.51-89.95-200.51-200.51-200.51Z"/><g><g><path class="cls-2" d="M506.41,397.05h-2.64c-1.41,0-2.56,0-2.56-1.41,0-1.3,.96-2.36,2.2-2.54,.04,0,.08,0,.12-.01h0s0,.03,0,.04c.01,.06,.03,.12,.06,.18,.19,.47,.8,1.37,1.16,1.88l.08-1.05c-.1-.06-.2-.15-.26-.25-.04-.08-.07-.16-.07-.24,0,0,.27,.12,.54,.12s.54-.12,.54-.12c0,.09-.03,.18-.08,.26-.06,.09-.14,.18-.25,.23l.07,1.03c.39-.49,1-1.32,1.22-1.8,.05-.07,.08-.15,.09-.23v-.03h0c.09,0,.16,0,.24,.02,1.19,.22,2.08,1.26,2.08,2.52,0,1.4-1.14,1.4-2.55,1.4h0Zm12.69,.46h-5.07c-.5,0-.91-.4-.91-.91s.41-.91,.91-.91h5.07c.5,0,.91,.4,.91,.91,0,.51-.41,.91-.91,.91Zm0-5.18h-5.07c-.5,0-.91-.41-.91-.91s.41-.91,.91-.91h5.07c.5,0,.91,.41,.91,.91s-.41,.91-.91,.91Z"/><path class="cls-2" d="M519.11,390.5h-5.07c-.5,0-.91,.41-.91,.91s.41,.91,.91,.91h5.07c.5,0,.91-.41,.91-.91s-.41-.91-.91-.91Z"/><path class="cls-2" d="M519.11,395.67h-5.07c-.5,0-.91,.41-.91,.91s.41,.91,.91,.91h5.07c.5,0,.91-.4,.91-.91,0-.5-.41-.91-.91-.91Z"/><path class="cls-2" d="M503.16,390.88v.06c.13,1.39,.94,2.48,1.93,2.48s1.83-1.11,1.93-2.54c.02-.1,.03-.21,.03-.31s0-.21-.03-.31c-.15-.98-.96-1.75-1.93-1.75s-1.8,.76-1.93,1.75c-.02,.1-.03,.21-.03,.31,0,.04,0,.09,0,.13,0,.06,.01,.12,.02,.18h0Zm.73-1.11s1.35,.66,2.26,0c0,0,.54,.85,.39,1.19l.27-.31c0,.09,0,.16-.02,.25-.09,1.25-.82,2.22-1.7,2.22s-1.58-.94-1.7-2.16c.08,.03,.17,.06,.27,.13,.02,0-.18-1.15,.23-1.31h0Z"/><path class="cls-2" d="M506.89,393.11c-.09-.01-.16-.03-.25-.03h0s0,.03,0,.04c0,.09-.03,.16-.08,.23-.23,.48-.84,1.31-1.22,1.8l-.08-1.03c.1-.05,.19-.13,.25-.23,.05-.08,.08-.17,.08-.26,0,0-.27,.12-.54,.12s-.54-.12-.54-.12c0,.09,.03,.16,.07,.24,.06,.1,.15,.19,.26,.25l-.08,1.05c-.36-.5-.97-1.4-1.16-1.88-.03-.06-.04-.12-.05-.18,0-.01,0-.02,0-.03h0s-.08,0-.12,0c-1.25,.18-2.2,1.24-2.2,2.54,0,1.41,1.15,1.41,2.57,1.41h2.63c1.41,0,2.56,0,2.56-1.41,0-1.25-.91-2.29-2.09-2.52h0Z"/><path class="cls-2" d="M447.19,343.96h0s0,.04,.01,.05c.12,1.06,.44,2.08,.93,3.07h0c-.48-1.21-.8-2.25-.94-3.12h0Z"/><path class="cls-2" d="M447.13,343.38c0-.07-.01-.13-.02-.19h0c0,.07,.02,.13,.02,.2h0Z"/><path class="cls-2" d="M507.26,343.8c-1.41-.27-2.86-.47-4.32-.6h0s0,.08,0,.12c0,.02,0,.05,0,.07,0,.01,0,.03,0,.04,0,.08-.02,.16-.03,.24-.01,.08-.02,.15-.03,.24h0c-.18,1.09-.69,2.49-1.47,4.12h0c-4.04,8.55-15.1,23.47-21.94,32.37l-1.29-18.53c1.77-.91,3.3-2.39,4.34-4.09,.85-1.41,1.39-2.99,1.39-4.59,0,0-4.81,2.12-9.71,2.12s-9.71-2.12-9.71-2.12c0,1.48,.45,2.94,1.2,4.27,1.03,1.85,2.65,3.45,4.53,4.41l-1.33,19.01c-6.44-9.15-17.37-25.28-20.75-33.78-.5-1-.82-2.05-.94-3.13-.03-.19-.06-.38-.07-.57,0-.07-.02-.14-.02-.2h0c-.36,.03-.71,.08-1.07,.12-.35,.04-.7,.08-1.05,.12-.02,0-.04,0-.07,.01-22.37,3.11-39.59,22.31-39.59,45.54,0,25.4,20.59,25.33,45.99,25.33h47.37c25.4,0,45.99,.07,45.99-25.33,.03-22.47-16.1-41.18-37.41-45.19h0Zm16.2,55.01c0,1.59-1.29,2.87-2.87,2.87h-19.54c-1.59,0-2.87-1.29-2.87-2.87v-12.07c0-1.59,1.29-2.87,2.87-2.87h19.54c1.59,0,2.87,1.29,2.87,2.87v12.07Z"/><path class="cls-2" d="M439,297.15h.85c0,.26-.01,.51-.01,.76,0,.78,.03,1.55,.07,2.31,.07,1.11,.18,2.22,.33,3.31,.03,.33,.06,.66,.09,.99,2.22,25.11,16.91,44.5,34.7,44.5s32.86-19.9,34.78-45.48c.27-1.84,.4-3.72,.4-5.64,0-.26,0-.51-.01-.76h1.01c2.9,0,9.86-2.36,9.86-5.26s-6.96-5.26-9.86-5.26h-.03c-1.93-13.38-10.55-26.52-22.89-32.37l-.71,9.4-.5,6.07-.91-.02,.48-6.77,.66-9.45,.13-1.95-5.77-.25v.23l-.31,9.94-.25,8.02v.47l-.47,14.73h-1l.64-23.4,.27-9.99,.1-3.43h-12.64l.1,3.78,.27,9.9,.63,23.15h-1l-.46-14.74v-.47l-.26-7.7-.31-9.82-.02-.66-5.99,.26,.2,2.8,.64,9.23,.43,6.13-.92,.02-.45-5.41-.69-9.17c-11.46,6.26-19.32,18.74-21.16,31.48h-.02c-2.91,0-9.86,2.35-9.86,5.26-.01,2.92,6.94,5.27,9.85,5.27h0Zm9.64,0h51.86c.94,3.02,1.34,5.89,.46,7.81l4.94-5.67c-.02,1.5-.13,2.99-.35,4.44-1.68,22.46-14.71,39.93-30.54,39.93s-28.43-16.91-30.44-38.84c1.37,.34,3.05,1,4.88,2.29,0,0-.79-4.71-.82-9.95h0Z"/></g><g><path class="cls-2" d="M265.06,397.05h-2.64c-1.41,0-2.56,0-2.56-1.41,0-1.3,.96-2.36,2.2-2.54,.04,0,.08,0,.12-.01h0s0,.03,0,.04c0,.06,.03,.12,.05,.18,.19,.47,.8,1.37,1.16,1.88l.08-1.05c-.11-.06-.2-.15-.26-.25-.04-.08-.07-.16-.07-.24,0,0,.27,.12,.54,.12s.54-.12,.54-.12c0,.09-.03,.18-.08,.26-.06,.09-.15,.18-.25,.23l.07,1.03c.38-.49,1-1.32,1.23-1.8,.05-.07,.08-.15,.08-.23v-.03h0c.09,0,.16,0,.24,.02,1.19,.22,2.08,1.26,2.08,2.52,.02,1.4-1.13,1.4-2.54,1.4h0Zm12.69,.46h-5.07c-.5,0-.91-.4-.91-.91s.41-.91,.91-.91h5.07c.5,0,.91,.4,.91,.91,0,.51-.41,.91-.91,.91Zm0-5.18h-5.07c-.5,0-.91-.41-.91-.91s.41-.91,.91-.91h5.07c.5,0,.91,.41,.91,.91s-.41,.91-.91,.91Z"/><path class="cls-2" d="M277.76,390.5h-5.07c-.5,0-.91,.41-.91,.91s.41,.91,.91,.91h5.07c.5,0,.91-.41,.91-.91s-.41-.91-.91-.91Z"/><path class="cls-2" d="M277.76,395.67h-5.07c-.5,0-.91,.41-.91,.91s.41,.91,.91,.91h5.07c.5,0,.91-.4,.91-.91,0-.5-.41-.91-.91-.91Z"/><path class="cls-2" d="M261.82,390.88v.06c.13,1.39,.94,2.48,1.93,2.48s1.83-1.11,1.93-2.54c.01-.1,.03-.21,.03-.31s0-.21-.03-.31c-.15-.98-.96-1.75-1.93-1.75s-1.79,.76-1.93,1.75c-.02,.1-.03,.21-.03,.31v.13c0,.06,0,.12,.03,.18h0Zm.73-1.11s1.35,.66,2.26,0c0,0,.54,.85,.39,1.19l.28-.31c0,.09,0,.16-.02,.25-.09,1.25-.82,2.22-1.7,2.22s-1.58-.94-1.7-2.16c.08,.03,.17,.06,.27,.13,0,0-.18-1.15,.22-1.31h0Z"/><path class="cls-2" d="M265.54,393.11c-.08-.01-.16-.03-.25-.03h0v.04c0,.09-.03,.16-.08,.23-.23,.48-.84,1.31-1.22,1.8l-.08-1.03c.1-.05,.18-.13,.25-.23,.05-.08,.08-.17,.08-.26,0,0-.27,.12-.54,.12s-.54-.12-.54-.12c0,.09,.03,.16,.07,.24,.06,.1,.15,.19,.25,.25l-.08,1.05c-.36-.5-.97-1.4-1.16-1.88-.03-.06-.04-.12-.05-.18,0-.01,0-.02,0-.03h0s-.08,0-.12,0c-1.25,.18-2.2,1.24-2.2,2.54,0,1.41,1.15,1.41,2.56,1.41h2.63c1.41,0,2.56,0,2.56-1.41-.01-1.25-.91-2.29-2.09-2.52h0Z"/><path class="cls-2" d="M205.84,343.96h0s0,.04,0,.05c.13,1.06,.44,2.08,.93,3.07h0c-.48-1.21-.8-2.25-.94-3.12h0Z"/><path class="cls-2" d="M205.78,343.38c0-.07-.01-.13-.01-.19h0c0,.07,.02,.13,.02,.2,0,0,0,0,0-.01Z"/><path class="cls-2" d="M265.91,343.8c-1.42-.27-2.86-.47-4.32-.6h0s0,.08,0,.12c0,.02,0,.05,0,.07,0,.01,0,.03,0,.04,0,.08-.02,.16-.03,.24-.01,.08-.01,.15-.03,.24h0c-.18,1.09-.69,2.49-1.47,4.12h0c-4.04,8.55-15.09,23.47-21.94,32.37l-1.3-18.53c1.77-.91,3.3-2.39,4.34-4.09,.86-1.41,1.39-2.99,1.39-4.59,0,0-4.81,2.12-9.71,2.12s-9.71-2.12-9.71-2.12c0,1.48,.46,2.94,1.2,4.27,1.03,1.85,2.65,3.45,4.53,4.41l-1.33,19.01c-6.44-9.15-17.37-25.28-20.75-33.78-.5-1-.82-2.05-.94-3.13-.03-.19-.06-.38-.07-.57,0-.07-.02-.14-.02-.2h0c-.36,.03-.71,.08-1.07,.12-.35,.04-.7,.08-1.05,.12-.02,0-.04,0-.06,.01-22.37,3.11-39.59,22.31-39.59,45.54,0,25.4,20.59,25.33,45.99,25.33h47.37c25.4,0,45.99,.07,45.99-25.33,.01-22.47-16.12-41.18-37.42-45.19h0Zm16.2,55.01c0,1.59-1.29,2.87-2.87,2.87h-19.54c-1.59,0-2.87-1.29-2.87-2.87v-12.07c0-1.59,1.29-2.87,2.88-2.87h19.54c1.59,0,2.87,1.29,2.87,2.87v12.07Z"/><path class="cls-2" d="M197.65,297.15h.85c0,.26-.01,.51-.01,.76,0,.78,.03,1.55,.07,2.31,.07,1.11,.18,2.22,.33,3.31,.03,.33,.06,.66,.08,.99,2.22,25.11,16.91,44.5,34.7,44.5s32.86-19.9,34.78-45.48c.27-1.84,.4-3.72,.4-5.64,0-.26-.01-.51-.02-.76h1c2.9,0,9.86-2.36,9.86-5.26s-6.96-5.26-9.86-5.26h-.02c-1.93-13.38-10.56-26.52-22.9-32.37l-.71,9.4-.5,6.07-.91-.02,.48-6.77,.66-9.45,.14-1.95-5.77-.25v.23l-.31,9.94-.25,8.02v.47l-.47,14.73h-1l.64-23.4,.28-9.99,.1-3.43h-12.64l.1,3.78,.27,9.9,.63,23.15h-1l-.46-14.74v-.47l-.26-7.7-.31-9.82-.02-.66-5.99,.26,.2,2.8,.64,9.23,.43,6.13-.91,.02-.45-5.41-.69-9.17c-11.46,6.26-19.32,18.74-21.16,31.48h-.02c-2.9,0-9.86,2.35-9.86,5.26,0,2.92,6.95,5.27,9.85,5.27h0Zm9.64,0h51.86c.94,3.02,1.34,5.89,.46,7.81l4.94-5.67c-.02,1.5-.13,2.99-.34,4.44-1.68,22.46-14.71,39.93-30.54,39.93s-28.43-16.91-30.44-38.84c1.37,.34,3.05,1,4.88,2.29,0,0-.79-4.71-.82-9.95h0Z"/></g><g><path class="cls-2" d="M401.5,451.03h-3.91c-2.1,0-3.8,0-3.8-2.08,0-1.92,1.42-3.5,3.27-3.76,.06,0,.12-.01,.18-.02h0s0,.05,0,.06c.01,.09,.04,.18,.08,.26,.28,.71,1.18,2.03,1.71,2.79l.11-1.57c-.16-.09-.29-.21-.38-.36-.06-.11-.1-.23-.1-.35,0,0,.4,.18,.8,.18s.8-.18,.8-.18c0,.13-.04,.27-.11,.38-.09,.14-.21,.27-.36,.34l.11,1.53c.57-.73,1.48-1.96,1.81-2.66,.07-.11,.11-.22,.12-.34,0-.02,0-.03,0-.05v-.02c.12,.01,.25,.04,.35,.06,1.76,.33,3.09,1.87,3.09,3.72,.02,2.08-1.68,2.08-3.77,2.08h0Zm18.82,.68h-7.52c-.74,0-1.36-.6-1.36-1.36s.6-1.34,1.36-1.34h7.52c.74,0,1.35,.6,1.35,1.34,0,.75-.6,1.36-1.35,1.36Zm0-7.69h-7.52c-.74,0-1.36-.6-1.36-1.35s.6-1.34,1.36-1.34h7.52c.74,0,1.35,.6,1.35,1.34s-.6,1.35-1.35,1.35Z"/><path class="cls-2" d="M420.32,441.33h-7.52c-.74,0-1.36,.6-1.36,1.34s.6,1.35,1.36,1.35h7.52c.74,0,1.35-.6,1.35-1.35s-.6-1.34-1.35-1.34Z"/><path class="cls-2" d="M420.32,449.01h-7.52c-.74,0-1.36,.6-1.36,1.35s.6,1.36,1.36,1.36h7.52c.74,0,1.35-.6,1.35-1.36,0-.75-.6-1.35-1.35-1.35Z"/><path class="cls-2" d="M396.68,441.9v.09c.19,2.07,1.4,3.67,2.87,3.67s2.71-1.64,2.87-3.75c.02-.15,.04-.31,.04-.46,0-.16-.01-.32-.04-.47-.21-1.46-1.42-2.59-2.87-2.59s-2.66,1.13-2.87,2.6c-.02,.15-.04,.31-.04,.46,0,.06,0,.13,0,.19,0,.09,.01,.18,.03,.27h0Zm1.07-1.65s2.01,.97,3.35,0c0,0,.81,1.27,.58,1.77l.4-.47c0,.12-.01,.25-.03,.37-.13,1.85-1.21,3.29-2.52,3.29s-2.34-1.39-2.51-3.21c.11,.04,.25,.09,.4,.19,0,0-.28-1.7,.32-1.94h0Z"/><path class="cls-2" d="M402.21,445.21c-.12-.01-.23-.04-.36-.05h0s0,.05,0,.06c0,.12-.05,.23-.12,.34-.33,.71-1.25,1.93-1.8,2.67l-.11-1.53c.14-.08,.27-.2,.36-.34,.07-.11,.11-.25,.11-.38,0,0-.39,.18-.8,.18s-.8-.18-.8-.18c0,.12,.04,.24,.1,.35,.09,.15,.22,.28,.37,.36l-.11,1.57c-.53-.75-1.43-2.08-1.71-2.79-.04-.08-.06-.17-.08-.26,0-.02,0-.03,0-.05h0c-.06-.01-.12,0-.18,0-1.85,.26-3.27,1.84-3.27,3.76,0,2.09,1.7,2.08,3.8,2.08h3.91c2.09,0,3.8,0,3.8-2.08-.03-1.85-1.37-3.4-3.12-3.73h0Z"/><path class="cls-2" d="M313.69,372.33h0s.01,.06,.01,.08c.19,1.58,.65,3.09,1.38,4.56h0c-.72-1.8-1.19-3.34-1.4-4.62,.01-.01,0-.01,0-.02h0Z"/><path class="cls-2" d="M313.59,371.46c0-.09-.01-.19-.02-.27h0c0,.09,.02,.19,.03,.29,0,0,0,0,0-.02Z"/><path class="cls-2" d="M402.76,372.08c-2.1-.39-4.24-.7-6.4-.89h0c0,.06-.01,.12-.01,.18-.01,.03-.01,.07-.01,.1,0,.01,0,.04,0,.06-.01,.12-.02,.23-.04,.35-.01,.12-.02,.23-.05,.35h0c-.27,1.62-1.02,3.69-2.17,6.11h0c-5.99,12.68-22.38,34.8-32.53,47.99l-1.92-27.47c2.63-1.36,4.89-3.53,6.44-6.07,1.27-2.09,2.07-4.43,2.07-6.81,0,0-7.13,3.15-14.39,3.15s-14.39-3.15-14.39-3.15c0,2.19,.67,4.35,1.78,6.33,1.54,2.74,3.93,5.11,6.72,6.55l-1.97,28.18c-9.55-13.57-25.76-37.48-30.76-50.09-.75-1.49-1.22-3.04-1.4-4.63-.04-.28-.08-.55-.1-.85,0-.1-.03-.2-.04-.29h0c-.53,.05-1.06,.11-1.58,.18-.52,.06-1.05,.11-1.56,.18-.03,0-.06,0-.09,.01-33.17,4.62-58.69,33.09-58.69,67.53,0,37.66,30.53,37.57,68.19,37.57h70.25c37.66,0,68.19,.1,68.19-37.56,0-33.32-23.91-61.06-55.51-67h0Zm24.02,81.57c0,2.35-1.91,4.26-4.26,4.26h-28.97c-2.35,0-4.26-1.91-4.26-4.26v-17.9c0-2.35,1.9-4.26,4.26-4.26h28.98c2.35,0,4.26,1.91,4.26,4.26v17.9Z"/><path class="cls-2" d="M301.55,302.92h1.26c0,.38-.01,.75-.01,1.14,0,1.15,.04,2.29,.11,3.43,.1,1.65,.26,3.29,.49,4.91,.04,.49,.08,.98,.12,1.47,3.29,37.23,25.07,65.98,51.45,65.98s48.73-29.5,51.58-67.43c.39-2.73,.6-5.52,.6-8.35,0-.38-.01-.75-.02-1.14h1.49c4.31,0,14.62-3.49,14.62-7.8s-10.31-7.8-14.62-7.8h-.03c-2.87-19.84-15.65-39.32-33.94-48l-1.06,13.94-.74,9-1.36-.02,.71-10.03,.99-14.02,.2-2.88-8.56-.36v.34l-.47,14.74-.37,11.89-.02,.7-.68,21.84h-1.48l.95-34.7,.4-14.82,.14-5.08h-18.74l.15,5.61,.4,14.67,.94,34.33h-1.48l-.68-21.85-.02-.7-.36-11.42-.46-14.56-.03-.99-8.88,.38,.29,4.16,.96,13.69,.64,9.09-1.36,.02-.67-8.03-1.02-13.6c-16.99,9.29-28.64,27.78-31.38,46.68h-.03c-4.3,0-14.62,3.49-14.62,7.8s10.31,7.79,14.61,7.79h0Zm14.3,0h76.9c1.39,4.47,1.99,8.73,.69,11.58l7.32-8.41c-.03,2.23-.2,4.44-.52,6.58-2.49,33.3-21.81,59.21-45.28,59.21s-42.15-25.07-45.14-57.59c2.03,.51,4.53,1.49,7.23,3.39,0-.01-1.17-6.99-1.21-14.75h0Z"/></g></g></g><text class="cls-3" transform="translate(277.02 608.68)"><tspan class="cls-5" x="0" y="0">B</tspan><tspan class="cls-4" x="31.97" y="0">uilde</tspan><tspan class="cls-1" x="138.62" y="0">r</tspan></text></svg>