<?xml version="1.0" encoding="UTF-8"?><svg id="Layer_1" xmlns="http://www.w3.org/2000/svg" viewBox="0 0 708.66 708.66"><defs><style>.cls-1,.cls-2{fill:props.fill;}.cls-3{letter-spacing:0em;}.cls-2{font-family:Lato-Medium, Lato;font-size:50px;}.cls-4{letter-spacing:0em;}</style></defs><g><g><path class="cls-1" d="M368.72,324c0-2.65-2.15-4.8-4.8-4.8h-19.19c-2.65,0-4.8,2.15-4.8,4.8v4.8h28.79v-4.8Z"/><path class="cls-1" d="M330.34,338.4v9.6h47.98v-9.6h-47.98Z"/><path class="cls-1" d="M354.33,300.01c-1.6,0-3.2-.1-4.8-.28v9.87h9.6v-9.87c-1.59,.18-3.2,.27-4.8,.28Z"/><path class="cls-1" d="M282.33,285.51c-1.39,1.87-3.05,3.52-4.92,4.91,1.87,1.39,3.52,3.04,4.92,4.91,1.38-1.86,3.03-3.52,4.88-4.91-1.85-1.39-3.5-3.05-4.88-4.91Z"/><path class="cls-1" d="M354.33,290.42c18.31,.21,33.33-14.44,33.59-32.75v-44.02h-67.17v44.02c.25,18.31,15.28,32.96,33.59,32.75Z"/><path class="cls-1" d="M311.15,246.86v-28.42h-19.18c-.25,8,2.25,15.84,7.06,22.23,3.17,3.44,7.47,5.64,12.12,6.19Z"/><path class="cls-1" d="M474.28,194.45H234.38c-7.95,0-14.38,6.45-14.39,14.39v239.9c0,7.95,8.09,16.34,21.34,25.28l41.03,21.26,38.38,11,47.98,3,74.61-19.5,31.25-20.75c10.9-8.7,14.09-12.35,14.1-20.3V208.85c0-7.95-6.45-14.38-14.39-14.39Zm-191.73,18.68c.26-2.44,2.32-4.29,4.77-4.29h23.83c0-1.27,.5-2.49,1.41-3.39,.9-.9,2.12-1.41,3.39-1.41h76.77c1.27,0,2.49,.5,3.39,1.41,.9,.9,1.41,2.12,1.41,3.39h23.83c2.45,0,4.51,1.85,4.77,4.29,.09,.86,2.11,21.21-9.32,33.93-5.01,5.47-11.89,8.85-19.28,9.47v1.13c-.13,18.06-11.68,34.07-28.79,39.88v12.95c5.74,2.02,9.58,7.43,9.6,13.51v4.8h4.8c1.27,0,2.49,.5,3.39,1.41,.9,.9,1.41,2.12,1.41,3.39v19.19c0,1.27-.5,2.49-1.41,3.39-.9,.9-2.12,1.41-3.39,1.41h-57.58c-1.27,0-2.49-.5-3.39-1.41-.9-.9-1.41-2.12-1.41-3.39v-19.19c0-1.27,.5-2.49,1.41-3.39,.9-.9,2.12-1.41,3.39-1.41h4.8v-4.8c.02-6.08,3.86-11.49,9.6-13.51v-12.95c-17.1-5.81-28.66-21.81-28.79-39.88v-1.13c-7.39-.62-14.27-4-19.28-9.47-11.43-12.72-9.41-33.07-9.32-33.93h0Zm-28.98,19.7c0,2.65-2.15,4.8-4.8,4.8s-4.8-2.15-4.8-4.8v-4.8h-4.8c-2.65,0-4.8-2.15-4.8-4.8s2.15-4.8,4.8-4.8h4.8v-4.8c0-2.65,2.15-4.8,4.8-4.8s4.8,2.15,4.8,4.8v4.8h4.8c2.65,0,4.8,2.15,4.8,4.8s-2.15,4.8-4.8,4.8h-4.8v4.8Zm23.99,206.32h-9.6c-2.65,0-4.8-2.15-4.8-4.8s2.15-4.8,4.8-4.8h9.6c2.65,0,4.8,2.15,4.8,4.8s-2.15,4.8-4.8,4.8Zm0-23.99h-9.6c-2.65,0-4.8-2.15-4.8-4.8s2.15-4.8,4.8-4.8h9.6c2.65,0,4.8,2.15,4.8,4.8s-2.15,4.8-4.8,4.8Zm0-23.99h-9.6c-2.65,0-4.8-2.15-4.8-4.8s2.15-4.8,4.8-4.8h9.6c2.65,0,4.8,2.15,4.8,4.8s-2.15,4.8-4.8,4.8Zm9.6-81.57c0,2.65-2.15,4.8-4.8,4.8s-4.8-2.15-4.8-4.8c0-7.95-6.45-14.38-14.39-14.39-2.65,0-4.8-2.15-4.8-4.8s2.15-4.8,4.8-4.8c7.95,0,14.38-6.45,14.39-14.39,0-2.65,2.15-4.8,4.8-4.8s4.8,2.15,4.8,4.8c0,7.95,6.45,14.38,14.39,14.39,2.65,0,4.8,2.15,4.8,4.8s-2.15,4.8-4.8,4.8c-7.95,0-14.38,6.45-14.39,14.39Zm124.75,129.55h-115.15c-2.65,0-4.8-2.15-4.8-4.8s2.15-4.8,4.8-4.8h115.15c2.65,0,4.8,2.15,4.8,4.8s-2.15,4.8-4.8,4.8Zm0-23.99h-115.15c-2.65,0-4.8-2.15-4.8-4.8s2.15-4.8,4.8-4.8h115.15c2.65,0,4.8,2.15,4.8,4.8s-2.15,4.8-4.8,4.8Zm0-23.99h-115.15c-2.65,0-4.8-2.15-4.8-4.8s2.15-4.8,4.8-4.8h115.15c2.65,0,4.8,2.15,4.8,4.8s-2.15,4.8-4.8,4.8Zm28.79,47.98h-9.6c-2.65,0-4.8-2.15-4.8-4.8s2.15-4.8,4.8-4.8h9.6c2.65,0,4.8,2.15,4.8,4.8s-2.15,4.8-4.8,4.8Zm0-23.99h-9.6c-2.65,0-4.8-2.15-4.8-4.8s2.15-4.8,4.8-4.8h9.6c2.65,0,4.8,2.15,4.8,4.8s-2.15,4.8-4.8,4.8Zm0-23.99h-9.6c-2.65,0-4.8-2.15-4.8-4.8s2.15-4.8,4.8-4.8h9.6c2.65,0,4.8,2.15,4.8,4.8s-2.15,4.8-4.8,4.8Zm4.8-62.38c-7.95,0-14.38,6.45-14.39,14.39,0,2.65-2.15,4.8-4.8,4.8s-4.8-2.15-4.8-4.8c0-7.95-6.45-14.38-14.39-14.39-2.65,0-4.8-2.15-4.8-4.8s2.15-4.8,4.8-4.8c7.95,0,14.38-6.45,14.39-14.39,0-2.65,2.15-4.8,4.8-4.8s4.8,2.15,4.8,4.8c0,7.95,6.45,14.38,14.39,14.39,2.65,0,4.8,2.15,4.8,4.8s-2.15,4.8-4.8,4.8Zm19.19-91.16h-4.8v4.8c0,2.65-2.15,4.8-4.8,4.8s-4.8-2.15-4.8-4.8v-4.8h-4.8c-2.65,0-4.8-2.15-4.8-4.8s2.15-4.8,4.8-4.8h4.8v-4.8c0-2.65,2.15-4.8,4.8-4.8s4.8,2.15,4.8,4.8v4.8h4.8c2.65,0,4.8,2.15,4.8,4.8s-2.15,4.8-4.8,4.8Z"/><path class="cls-1" d="M426.27,319.09c-1.39,1.86-3.05,3.52-4.92,4.91,1.87,1.39,3.52,3.05,4.92,4.91,1.38-1.86,3.03-3.52,4.88-4.91-1.85-1.39-3.5-3.05-4.88-4.91Z"/><path class="cls-1" d="M416.72,218.44h-19.21v28.42c4.66-.55,8.97-2.76,12.14-6.21,4.78-6.4,7.26-14.22,7.06-22.2h0Z"/></g><path class="cls-1" d="M354.33,513.81c-116.08,0-210.51-94.44-210.51-210.51S238.25,92.79,354.33,92.79s210.51,94.44,210.51,210.51-94.44,210.51-210.51,210.51Zm0-411.03c-110.56,0-200.51,89.95-200.51,200.51s89.95,200.51,200.51,200.51,200.51-89.95,200.51-200.51-89.95-200.51-200.51-200.51Z"/></g><text class="cls-2" transform="translate(215.28 602.37)"><tspan class="cls-4" x="0" y="0">G</tspan><tspan x="36.35" y="0">amific</tspan><tspan class="cls-3" x="167.72" y="0">at</tspan><tspan x="192.37" y="0">ion</tspan></text></svg>