<?xml version="1.0" encoding="UTF-8"?><svg id="Layer_1" xmlns="http://www.w3.org/2000/svg" viewBox="0 0 708.66 708.66"><defs><style>.cls-1,.cls-2{fill:props.fill;}.cls-3{letter-spacing:0em;}.cls-2{font-family:Lato-Medium, Lato;font-size:50px;}.cls-4{letter-spacing:0em;}.cls-5{letter-spacing:0em;}</style></defs><g><path class="cls-1" d="M354.33,514.3c-116.08,0-210.51-94.44-210.51-210.51S238.25,93.27,354.33,93.27s210.51,94.44,210.51,210.51-94.44,210.51-210.51,210.51Zm0-411.03c-110.56,0-200.51,89.95-200.51,200.51s89.95,200.51,200.51,200.51,200.51-89.95,200.51-200.51-89.95-200.51-200.51-200.51Z"/><g><path class="cls-1" d="M247.13,250.03h19.15c4.61,0,8.34,4.61,8.34,8.34v.62c0,4.61-3.73,8.34-8.34,8.34h-19.15c-4.61,0-8.34-4.61-8.34-8.34v-.62c0-4.61,3.73-8.34,8.34-8.34h0Z"/><path class="cls-1" d="M247.13,295.13h19.15c4.61,0,8.34,4.61,8.34,8.34v.62c0,4.61-3.73,8.34-8.34,8.34h-19.15c-4.61,0-8.34-4.61-8.34-8.34v-.62c0-4.61,3.73-8.34,8.34-8.34h0Z"/><path class="cls-1" d="M247.13,340.24h19.15c4.61,0,8.34,4.61,8.34,8.34v.62c0,4.61-3.73,8.34-8.34,8.34h-19.15c-4.61,0-8.34-4.61-8.34-8.34v-.62c0-4.61,3.73-8.34,8.34-8.34h0Z"/><path class="cls-1" d="M247.13,204.93h19.15c4.61,0,8.34,4.61,8.34,8.34v.62c0,4.61-3.73,8.34-8.34,8.34h-19.15c-4.61,0-8.34-4.61-8.34-8.34v-.62c0-4.61,3.73-8.34,8.34-8.34h0Z"/><path class="cls-1" d="M375.22,267.95c3.49,0,6.84-1.39,9.31-3.85,2.47-2.47,3.85-5.81,3.85-9.31s-1.39-6.84-3.85-9.31c-2.47-2.47-5.81-3.85-9.31-3.85s-6.84,1.39-9.31,3.85c-2.47,2.47-3.85,5.81-3.85,9.31,0,3.49,1.39,6.83,3.86,9.3,2.47,2.47,5.81,3.85,9.3,3.86h0Z"/><path class="cls-1" d="M341.97,319.23h66.72c1.71-.02,3.11-1.35,3.22-3.06l-4.7-23.98c-.57-2.97-.96-4.94-1.47-5.56-.39-.51-1.71-.89-3.87-1.52l-10.07-2.52c-2.12,1.67-7.2,4.7-16.03,4.7s-14.83-3.09-17.08-4.71l-9.48,2.53c-2.12,.53-3.49,.87-3.86,1.34-.51,.65-.9,2.67-1.47,5.75v.07l-5.16,23.95h0c.13,1.69,1.54,2.99,3.24,3h0Z"/><path class="cls-1" d="M447.01,167.86h-164.35c-12.6,0-22.86,10.45-22.86,23.05v9.08h6.18c7.33,0,12.97,6.18,12.97,13.52v.58c.05,3.47-1.29,6.81-3.74,9.27-2.44,2.46-5.77,3.83-9.24,3.81h-6.18v17.92h6.18c7.33,0,12.97,6.14,12.97,13.46v.58c.06,3.47-1.29,6.82-3.73,9.29-2.44,2.47-5.77,3.86-9.25,3.85h-6.18v17.92h6.18c7.33,0,12.97,6.08,12.97,13.4v.58c.06,3.48-1.28,6.84-3.72,9.32-2.44,2.48-5.77,3.88-9.26,3.88h-6.18v17.92h6.18c7.33,0,12.97,6.02,12.97,13.34v.58c.06,3.49-1.28,6.85-3.72,9.34-2.44,2.49-5.77,3.91-9.26,3.92h-6.18v17.92h6.18c7.33,0,12.97,5.96,12.97,13.28v.58c0,7.33-5.67,13.33-12.97,13.33h-6.18v9.27c.01,6.06,2.43,11.86,6.71,16.15,4.29,4.28,10.09,6.7,16.15,6.71h164.2c6.13-.02,12-2.47,16.32-6.82,4.32-4.35,6.72-10.25,6.69-16.38V191.13c0-12.73-10.16-23.28-22.86-23.28h0Zm-71.79,68.83c4.8,0,9.41,1.91,12.8,5.3,3.4,3.39,5.3,8,5.3,12.8s-1.91,9.41-5.3,12.8c-3.39,3.4-8,5.3-12.8,5.3s-9.41-1.91-12.8-5.3c-3.4-3.39-5.3-8-5.3-12.8,0-4.8,1.92-9.4,5.31-12.79,3.39-3.39,7.99-5.3,12.79-5.31h0Zm-41.4,78.72l5.21-24.18c1.52-8.09,1.99-9.19,8.95-10.93l10.62-2.84h0c.82-.22,1.69,0,2.32,.57,.23,.2,4.88,4.29,14.86,4.29s13.38-3.97,13.54-4.14h0c.61-.68,1.54-.96,2.42-.73l11.4,2.85h.09c6.91,2.01,7.31,2.97,8.85,10.93l4.74,24.21h0c.03,.16,.04,.33,.04,.49,0,2.18-.85,4.26-2.39,5.81-1.53,1.54-3.61,2.42-5.79,2.43h-66.72c-2.17-.01-4.25-.88-5.78-2.42-1.53-1.54-2.39-3.62-2.39-5.79,0-.19,0-.38,.04-.56h-.03Zm75.58,59.43h-68.12c-1.36,0-2.47-1.11-2.47-2.47s1.11-2.47,2.47-2.47h68.12c1.37,0,2.47,1.11,2.47,2.47s-1.11,2.47-2.47,2.47Zm6.18-19.15h-80.47c-1.36,0-2.47-1.11-2.47-2.47s1.11-2.47,2.47-2.47h80.47c1.37,0,2.47,1.11,2.47,2.47s-1.11,2.47-2.47,2.47Z"/><path class="cls-1" d="M247.13,385.34h19.15c4.61,0,8.34,4.61,8.34,8.34v.62c0,4.61-3.73,8.34-8.34,8.34h-19.15c-4.61,0-8.34-4.61-8.34-8.34v-.62c0-4.61,3.73-8.34,8.34-8.34h0Z"/></g></g><text class="cls-2" transform="translate(255.99 601.89)"><tspan class="cls-5" x="0" y="0">C</tspan><tspan class="cls-3" x="32.82" y="0">o</tspan><tspan class="cls-4" x="61.27" y="0">n</tspan><tspan x="88.9" y="0">tacts </tspan></text></svg>